<svg width="238" height="252" viewBox="0 0 238 252" fill="none" xmlns="http://www.w3.org/2000/svg">
<path d="M126.781 53.1223H1.37323V91.8688H126.781V53.1223Z" stroke="#263238" stroke-width="1.14333" stroke-linecap="round" stroke-linejoin="round"/>
<path d="M126.776 53.0946H1.37323L13.9111 28.1433H114.238L126.776 53.0946Z" stroke="#263238" stroke-width="1.14333" stroke-linecap="round" stroke-linejoin="round"/>
<path d="M13.9106 28.1433V0.573689" stroke="#263238" stroke-width="1.14333" stroke-linecap="round" stroke-linejoin="round"/>
<path d="M114.833 28.1433V0.573689" stroke="#263238" stroke-width="1.14333" stroke-linecap="round" stroke-linejoin="round"/>
<path d="M215.754 50.901L216.477 18.7004C216.497 17.8937 216.779 17.1278 217.263 16.5649C217.748 16.0021 218.397 15.6865 219.073 15.6851C219.749 15.6848 220.399 16 220.883 16.5634C221.367 17.1268 221.647 17.8937 221.664 18.7004L222.387 51.089" stroke="#263238" stroke-width="1.14333" stroke-linecap="round" stroke-linejoin="round"/>
<path d="M216.477 18.7003L216.302 26.4023H221.833L221.658 18.7003C221.626 17.9047 221.339 17.1543 220.857 16.6046C220.374 16.0549 219.732 15.7483 219.065 15.7483C218.397 15.7483 217.756 16.0549 217.273 16.6046C216.79 17.1543 216.503 17.9047 216.471 18.7003H216.477Z" stroke="#263238" stroke-width="1.14333" stroke-linecap="round" stroke-linejoin="round"/>
<path d="M226.169 93.0093C235.566 88.2693 239.964 75.3343 235.993 64.1184C232.022 52.9025 221.185 47.6528 211.788 52.3929C202.391 57.133 197.993 70.0679 201.965 81.2838C205.936 92.4997 216.773 97.7494 226.169 93.0093Z" stroke="#263238" stroke-width="1.14333" stroke-linecap="round" stroke-linejoin="round"/>
<path d="M233.078 76.6547C234.897 67.3671 230.064 58.0777 222.283 55.9061C214.502 53.7346 206.719 59.5033 204.9 68.7908C203.081 78.0784 207.914 87.3679 215.695 89.5394C223.476 91.711 231.259 85.9423 233.078 76.6547Z" stroke="#263238" stroke-width="1.14333" stroke-linecap="round" stroke-linejoin="round"/>
<path d="M219.05 19.362C219.311 19.362 219.523 19.1094 219.523 18.7979C219.523 18.4864 219.311 18.2338 219.05 18.2338C218.789 18.2338 218.578 18.4864 218.578 18.7979C218.578 19.1094 218.789 19.362 219.05 19.362Z" stroke="#263238" stroke-width="1.14333" stroke-linecap="round" stroke-linejoin="round"/>
<path d="M180.299 46.6459L180.93 18.359C180.946 17.6502 181.194 16.9772 181.62 16.483C182.046 15.9888 182.617 15.7125 183.211 15.7128C183.805 15.7143 184.376 15.9922 184.802 16.4874C185.228 16.9827 185.475 17.6565 185.492 18.366L186.128 46.8479" stroke="#263238" stroke-width="1.14333" stroke-linecap="round" stroke-linejoin="round"/>
<path d="M180.929 18.3593L180.777 25.1351H185.643L185.491 18.3663C185.491 17.6441 185.251 16.9516 184.823 16.4409C184.395 15.9303 183.815 15.6434 183.21 15.6434C182.605 15.6434 182.025 15.9303 181.597 16.4409C181.169 16.9516 180.929 17.6441 180.929 18.3663V18.3593Z" stroke="#263238" stroke-width="1.14333" stroke-linecap="round" stroke-linejoin="round"/>
<path d="M194.612 79.5311C200.953 71.9627 200.953 59.6918 194.612 52.1233C188.271 44.5549 177.99 44.5549 171.65 52.1233C165.309 59.6918 165.309 71.9627 171.65 79.5311C177.99 87.0996 188.271 87.0996 194.612 79.5311Z" stroke="#263238" stroke-width="1.14333" stroke-linecap="round" stroke-linejoin="round"/>
<path d="M191.791 76.9754C196.942 71.2687 197.241 61.6588 192.46 55.5111C187.679 49.3635 179.628 49.0061 174.477 54.7128C169.327 60.4196 169.027 70.0295 173.808 76.1771C178.589 82.3248 186.641 82.6822 191.791 76.9754Z" stroke="#263238" stroke-width="1.14333" stroke-linecap="round" stroke-linejoin="round"/>
<path d="M183.193 18.9233C183.425 18.9233 183.613 18.6988 183.613 18.4219C183.613 18.145 183.425 17.9205 183.193 17.9205C182.961 17.9205 182.773 18.145 182.773 18.4219C182.773 18.6988 182.961 18.9233 183.193 18.9233Z" stroke="#263238" stroke-width="1.14333" stroke-linecap="round" stroke-linejoin="round"/>
<path d="M149.354 43.0947L149.937 18.025C149.951 17.3969 150.169 16.8 150.546 16.3616C150.924 15.9232 151.429 15.678 151.956 15.6782C152.482 15.678 152.988 15.9232 153.365 16.3616C153.742 16.8 153.961 17.3969 153.974 18.025L154.558 43.2479" stroke="#263238" stroke-width="1.14333" stroke-linecap="round" stroke-linejoin="round"/>
<path d="M149.914 18.0318L149.78 24.0277H154.085L153.951 18.0318C153.951 17.3928 153.739 16.7799 153.36 16.3281C152.981 15.8762 152.468 15.6224 151.933 15.6224C151.397 15.6224 150.884 15.8762 150.505 16.3281C150.127 16.7799 149.914 17.3928 149.914 18.0318Z" stroke="#263238" stroke-width="1.14333" stroke-linecap="round" stroke-linejoin="round"/>
<path d="M151.856 77.2379C159.796 77.2379 166.232 69.5557 166.232 60.0791C166.232 50.6026 159.796 42.9203 151.856 42.9203C143.917 42.9203 137.481 50.6026 137.481 60.0791C137.481 69.5557 143.917 77.2379 151.856 77.2379Z" stroke="#263238" stroke-width="1.14333" stroke-linecap="round" stroke-linejoin="round"/>
<path d="M151.857 73.5266C158.079 73.5266 163.123 67.5061 163.123 60.0795C163.123 52.6529 158.079 46.6324 151.857 46.6324C145.634 46.6324 140.59 52.6529 140.59 60.0795C140.59 67.5061 145.634 73.5266 151.857 73.5266Z" stroke="#263238" stroke-width="1.14333" stroke-linecap="round" stroke-linejoin="round"/>
<path d="M152.283 18.1084C152.283 17.9921 152.245 17.8805 152.176 17.7982C152.107 17.7159 152.013 17.6697 151.916 17.6697C151.818 17.6697 151.725 17.7159 151.656 17.7982C151.587 17.8805 151.548 17.9921 151.548 18.1084C151.548 18.2248 151.587 18.3364 151.656 18.4187C151.725 18.5009 151.818 18.5471 151.916 18.5471C152.013 18.5471 152.107 18.5009 152.176 18.4187C152.245 18.3364 152.283 18.2248 152.283 18.1084Z" stroke="#263238" stroke-width="1.14333" stroke-linecap="round" stroke-linejoin="round"/>
<path d="M0.573689 204.39H212.341" stroke="#263238" stroke-width="1.14333" stroke-linecap="round" stroke-linejoin="round"/>
<path d="M0.573689 186.681H212.341" stroke="#263238" stroke-width="1.14333" stroke-linecap="round" stroke-linejoin="round"/>
<path d="M52.8497 85.5737C52.8497 85.5737 49.7983 97.0918 49.635 102.078C49.4716 107.064 55.4226 113.763 58.7773 117.621C62.132 121.479 68.1122 123.192 76.461 122.802C84.8099 122.412 92.0561 117.816 92.0561 117.816C92.0561 117.816 91.8986 148.324 92.0561 155.42C92.2136 162.517 92.7037 237.363 92.7037 237.363H149.617C149.617 237.363 148.17 167.127 148.649 158.875C149.127 150.622 152.19 126.639 152.19 126.639C152.19 126.639 173.573 138.533 178.392 138.533C183.211 138.533 194.792 123.213 194.314 119.153C193.835 115.093 177.108 103.415 171.321 97.6558C165.533 91.8968 163.281 86.3397 159.261 84.0347C155.242 81.7297 137.091 76.9316 133.054 76.3745C129.016 75.8174 107.173 77.3285 101.222 77.7116C95.2708 78.0946 85.3058 90.1907 82.8963 92.3007C81.0402 93.8493 79.1054 95.2587 77.1028 96.5208C77.1028 96.5208 78.0713 95.1767 76.461 94.7937C75.6688 94.5821 74.8625 94.4539 74.0515 94.4107C74.0515 94.4107 73.2463 83.2687 72.6046 82.1266C71.9628 80.9845 62.4762 78.2896 58.9407 78.6447C55.4051 78.9999 52.8497 85.5737 52.8497 85.5737Z" fill="white"/>
<mask id="mask0_215_1283" style="mask-type:luminance" maskUnits="userSpaceOnUse" x="49" y="76" width="146" height="162">
<path d="M52.8497 85.5737C52.8497 85.5737 49.7983 97.0918 49.635 102.078C49.4716 107.064 55.4226 113.763 58.7773 117.621C62.132 121.479 68.1122 123.192 76.461 122.802C84.8099 122.412 92.0561 117.816 92.0561 117.816C92.0561 117.816 91.8986 148.324 92.0561 155.42C92.2136 162.517 92.7037 237.363 92.7037 237.363H149.617C149.617 237.363 148.17 167.127 148.649 158.875C149.127 150.622 152.19 126.639 152.19 126.639C152.19 126.639 173.573 138.533 178.392 138.533C183.211 138.533 194.792 123.213 194.314 119.153C193.835 115.093 177.108 103.415 171.321 97.6558C165.533 91.8968 163.281 86.3397 159.261 84.0347C155.242 81.7297 137.091 76.9316 133.054 76.3745C129.016 75.8174 107.173 77.3285 101.222 77.7116C95.2708 78.0946 85.3058 90.1907 82.8963 92.3007C81.0402 93.8493 79.1054 95.2587 77.1028 96.5208C77.1028 96.5208 78.0713 95.1767 76.461 94.7937C75.6688 94.5821 74.8625 94.4539 74.0515 94.4107C74.0515 94.4107 73.2463 83.2687 72.6046 82.1266C71.9628 80.9845 62.4762 78.2896 58.9407 78.6447C55.4051 78.9999 52.8497 85.5737 52.8497 85.5737Z" fill="white"/>
</mask>
<g mask="url(#mask0_215_1283)">
<path d="M193.083 123.213C193.952 121.5 194.442 120.051 194.337 119.16C193.853 115.128 177.132 103.422 171.344 97.6628C165.557 91.9038 163.305 86.3467 159.285 84.0417C155.265 81.7366 137.115 76.9386 133.077 76.3815C130.941 76.2187 128.798 76.1931 126.66 76.3049C131.415 82.1545 118.375 92.6907 121.17 92.9692C123.964 93.2478 136.508 90.9706 143.696 87.252C143.696 87.252 152.325 86.9595 159.518 92.1266C165.639 96.472 181.42 111.98 193.083 123.213Z" fill="#953737"/>
<path d="M164.804 133.262C164.804 133.262 158.334 125.539 157.616 123.512C156.898 121.486 161.7 99.4872 159.051 104.919C157.498 108.088 156.53 111.616 156.21 115.267C156.21 115.267 153.089 100.964 152.849 104.397C152.61 107.83 152.61 116.416 152.61 116.416C152.61 116.416 141.35 100.964 143.275 107.83C145.201 114.696 147.359 122.704 147.359 122.704L131.974 252.865L138.445 250.288L152.82 128.143L164.804 133.262Z" fill="#953737"/>
<path d="M92.1905 124.425C92.1905 124.425 92.4297 93.7841 91.7063 95.2465C90.9828 96.7089 90.2711 103.255 90.2711 103.255C90.2711 103.255 86.6771 93.2409 86.187 96.674C85.697 100.107 86.9047 107.545 86.9047 107.545C86.9047 107.545 82.5873 109.55 70.8487 111.834C59.1101 114.118 61.5138 111.834 68.4508 107.83C75.3878 103.826 80.7028 94.6754 80.7028 90.3788C80.7028 86.0821 78.3049 74.0278 70.8779 72.3356C63.4508 70.6434 47.8674 88.0947 46.6714 91.5278C45.4753 94.961 55.7612 90.0863 55.7612 90.0863C55.7612 90.0863 57.1964 98.1016 57.6749 100.671C58.1533 103.241 55.0436 107.538 54.7985 108.68C54.5535 109.822 60.5512 107.252 60.0494 108.109C59.5477 108.965 53.8184 114.376 55.0203 116.98C56.2221 119.585 66.0646 124.139 74.9327 125.602C80.6995 126.386 86.5362 125.988 92.1905 124.425Z" fill="#953737"/>
<path opacity="0.5" d="M92.1905 124.425C92.1905 124.425 92.4297 93.7841 91.7063 95.2465C90.9828 96.7089 90.2711 103.255 90.2711 103.255C90.2711 103.255 86.6771 93.2409 86.187 96.674C85.697 100.107 86.9047 107.545 86.9047 107.545C86.9047 107.545 82.5873 109.55 70.8487 111.834C59.1101 114.118 61.5138 111.834 68.4508 107.83C75.3878 103.826 80.7028 94.6754 80.7028 90.3788C80.7028 86.0821 78.3049 74.0278 70.8779 72.3356C63.4508 70.6434 47.8674 88.0947 46.6714 91.5278C45.4753 94.961 55.7612 90.0863 55.7612 90.0863C55.7612 90.0863 57.1964 98.1016 57.6749 100.671C58.1533 103.241 55.0436 107.538 54.7985 108.68C54.5535 109.822 60.5512 107.252 60.0494 108.109C59.5477 108.965 53.8184 114.376 55.0203 116.98C56.2221 119.585 66.0646 124.139 74.9327 125.602C80.6995 126.386 86.5362 125.988 92.1905 124.425Z" fill="white"/>
<path opacity="0.5" d="M164.804 133.262C164.804 133.262 158.334 125.539 157.616 123.512C156.898 121.486 161.7 99.4872 159.051 104.919C157.498 108.088 156.53 111.616 156.21 115.267C156.21 115.267 153.089 100.964 152.849 104.397C152.61 107.83 152.61 116.416 152.61 116.416C152.61 116.416 141.35 100.964 143.275 107.83C145.201 114.696 147.359 122.704 147.359 122.704L131.974 252.865L138.445 250.288L152.82 128.143L164.804 133.262Z" fill="white"/>
<path d="M92.721 237.37H149.64C149.64 237.37 149.191 215.713 148.876 195.044L92.4001 190.546C92.5635 212.851 92.721 237.37 92.721 237.37Z" fill="#263238"/>
<path opacity="0.5" d="M193.083 123.213C193.952 121.5 194.442 120.051 194.337 119.16C193.853 115.128 177.132 103.422 171.344 97.6628C165.557 91.9038 163.305 86.3467 159.285 84.0417C155.265 81.7366 137.115 76.9386 133.077 76.3815C130.941 76.2187 128.798 76.1931 126.66 76.3049C131.415 82.1545 118.375 92.6907 121.17 92.9692C123.964 93.2478 136.508 90.9706 143.696 87.252C143.696 87.252 152.325 86.9595 159.518 92.1266C165.639 96.472 181.42 111.98 193.083 123.213Z" fill="white"/>
</g>
<path d="M52.8497 85.5737C52.8497 85.5737 49.7983 97.0918 49.635 102.078C49.4716 107.064 55.4226 113.763 58.7773 117.621C62.132 121.479 68.1122 123.192 76.461 122.802C84.8099 122.412 92.0561 117.816 92.0561 117.816C92.0561 117.816 91.8986 148.324 92.0561 155.42C92.2136 162.517 92.7037 237.363 92.7037 237.363H149.617C149.617 237.363 148.17 167.127 148.649 158.875C149.127 150.622 152.19 126.639 152.19 126.639C152.19 126.639 173.573 138.533 178.392 138.533C183.211 138.533 194.792 123.213 194.314 119.153C193.835 115.093 177.108 103.415 171.321 97.6558C165.533 91.8968 163.281 86.3397 159.261 84.0347C155.242 81.7297 137.091 76.9316 133.054 76.3745C129.016 75.8174 107.173 77.3285 101.222 77.7116C95.2708 78.0946 85.3058 90.1907 82.8963 92.3007C81.0402 93.8493 79.1054 95.2587 77.1028 96.5208C77.1028 96.5208 78.0713 95.1767 76.461 94.7937C75.6688 94.5821 74.8625 94.4539 74.0515 94.4107C74.0515 94.4107 73.2463 83.2687 72.6046 82.1266C71.9628 80.9845 62.4762 78.2896 58.9407 78.6447C55.4051 78.9999 52.8497 85.5737 52.8497 85.5737Z" stroke="#263238" stroke-width="1.14333" stroke-linecap="round" stroke-linejoin="round"/>
<path d="M92.4 99.9679L92.0791 117.816L87.9018 98.2409" stroke="#263238" stroke-width="1.14333" stroke-linecap="round" stroke-linejoin="round"/>
<path d="M74.0749 94.4039C74.0749 94.4039 67.803 104.188 63.4448 105.149" stroke="#263238" stroke-width="1.14333" stroke-linecap="round" stroke-linejoin="round"/>
<path d="M77.1257 96.5139C77.1257 96.5139 75.037 101.507 72.785 102.085" stroke="#263238" stroke-width="1.14333" stroke-linecap="round" stroke-linejoin="round"/>
<path d="M154.943 114.55L152.213 126.646L150.602 114.362" stroke="#263238" stroke-width="1.14333" stroke-linecap="round" stroke-linejoin="round"/>
<path d="M118.451 92.0988L112.821 97.6629L107.996 236.409" stroke="#263238" stroke-width="1.14333" stroke-linecap="round" stroke-linejoin="round"/>
<path d="M115.37 108.505C115.37 108.752 115.309 108.993 115.194 109.198C115.079 109.403 114.916 109.563 114.725 109.657C114.534 109.751 114.324 109.776 114.122 109.728C113.919 109.68 113.733 109.561 113.587 109.387C113.441 109.212 113.342 108.99 113.301 108.748C113.261 108.507 113.282 108.256 113.361 108.028C113.44 107.8 113.574 107.606 113.745 107.469C113.917 107.332 114.119 107.259 114.326 107.259C114.602 107.261 114.867 107.392 115.062 107.626C115.258 107.859 115.368 108.175 115.37 108.505Z" fill="#263238"/>
<path d="M126.969 108.505C126.969 108.752 126.907 108.993 126.793 109.198C126.678 109.403 126.515 109.563 126.324 109.657C126.133 109.751 125.923 109.776 125.721 109.728C125.518 109.68 125.332 109.561 125.186 109.387C125.04 109.212 124.94 108.99 124.9 108.748C124.86 108.507 124.88 108.256 124.959 108.028C125.038 107.8 125.172 107.606 125.344 107.469C125.516 107.332 125.718 107.259 125.924 107.259C126.201 107.261 126.466 107.392 126.661 107.626C126.857 107.859 126.967 108.175 126.969 108.505Z" fill="#263238"/>
<path d="M114.99 132.565C114.99 132.812 114.929 133.053 114.814 133.258C114.699 133.463 114.536 133.623 114.346 133.717C114.155 133.811 113.945 133.836 113.742 133.788C113.54 133.74 113.353 133.621 113.207 133.447C113.061 133.272 112.962 133.05 112.922 132.809C112.881 132.567 112.902 132.316 112.981 132.088C113.06 131.861 113.194 131.666 113.366 131.529C113.537 131.392 113.739 131.319 113.946 131.319C114.223 131.319 114.488 131.45 114.684 131.684C114.88 131.918 114.99 132.235 114.99 132.565Z" fill="#263238"/>
<path d="M126.566 132.565C126.566 132.812 126.505 133.053 126.39 133.258C126.275 133.463 126.112 133.623 125.921 133.717C125.73 133.811 125.52 133.836 125.318 133.788C125.115 133.74 124.929 133.621 124.783 133.447C124.637 133.272 124.538 133.05 124.497 132.809C124.457 132.567 124.478 132.316 124.557 132.088C124.636 131.861 124.77 131.666 124.941 131.529C125.113 131.392 125.315 131.319 125.522 131.319C125.659 131.319 125.795 131.351 125.921 131.414C126.048 131.476 126.163 131.568 126.26 131.684C126.357 131.8 126.434 131.937 126.486 132.088C126.539 132.24 126.566 132.402 126.566 132.565Z" fill="#263238"/>
<path d="M114.589 159.842C114.589 160.089 114.527 160.33 114.413 160.535C114.298 160.74 114.135 160.9 113.944 160.994C113.753 161.088 113.543 161.113 113.34 161.065C113.138 161.017 112.952 160.898 112.806 160.724C112.66 160.549 112.56 160.327 112.52 160.086C112.48 159.844 112.5 159.593 112.579 159.365C112.658 159.138 112.792 158.943 112.964 158.806C113.136 158.669 113.338 158.596 113.544 158.596C113.821 158.596 114.087 158.727 114.283 158.961C114.478 159.195 114.589 159.512 114.589 159.842Z" fill="#263238"/>
<path d="M126.163 159.842C126.163 160.089 126.102 160.33 125.987 160.535C125.872 160.74 125.709 160.9 125.519 160.994C125.328 161.088 125.118 161.113 124.915 161.065C124.713 161.017 124.526 160.898 124.38 160.724C124.234 160.549 124.135 160.327 124.095 160.086C124.054 159.844 124.075 159.593 124.154 159.365C124.233 159.138 124.367 158.943 124.539 158.806C124.71 158.669 124.912 158.596 125.119 158.596C125.256 158.596 125.392 158.628 125.519 158.691C125.645 158.753 125.76 158.845 125.857 158.961C125.954 159.077 126.031 159.214 126.084 159.365C126.136 159.517 126.163 159.679 126.163 159.842Z" fill="#263238"/>
<path d="M65.0724 64.6615C65.0724 64.6615 60.8892 64.6615 59.4423 65.2325C57.9954 65.8035 52.692 77.5166 51.2743 81.7367C50.3981 84.4875 50.0666 87.4428 50.3058 90.3718L58.0245 85.9568L60.2766 98.2409C60.2766 98.2409 72.4936 86.7297 74.1039 82.9205C75.7141 79.1114 72.0152 68.3314 72.0152 68.3314L65.0724 64.6615Z" fill="#263238" stroke="#263238" stroke-width="1.14333" stroke-linecap="round" stroke-linejoin="round"/>
<path d="M118.772 72.3353C118.772 72.3353 111.053 74.8284 110.248 79.4384C109.443 84.0484 116.036 91.3326 117.325 92.6696C118.614 94.0067 130.505 91.1306 135.814 89.5986C141.123 88.0665 148.194 84.0275 148.031 80.7685C147.868 77.5094 144.653 76.1654 143.69 73.4774C142.728 70.7894 142.08 69.2573 139.186 68.8743C136.301 68.5375 133.398 68.4723 130.505 68.6794C129.373 68.8813 118.772 72.3353 118.772 72.3353Z" fill="#263238" stroke="#263238" stroke-width="1.14333" stroke-linecap="round" stroke-linejoin="round"/>
<path d="M118.45 92.0989C118.45 92.0989 117.645 90.1839 114.588 90.3719C111.53 90.5599 109.121 94.592 109.121 94.592C109.121 94.592 115.072 96.131 118.45 92.0989Z" fill="#263238" stroke="#263238" stroke-width="1.14333" stroke-linecap="round" stroke-linejoin="round"/>
<path d="M118.45 92.0989C118.45 92.0989 119.733 89.2228 122.306 92.2939C124.879 95.3649 126.484 100.532 126.484 100.532C126.484 100.532 123.111 102.259 119.897 98.227C116.682 94.195 118.45 92.0989 118.45 92.0989Z" fill="#263238" stroke="#263238" stroke-width="1.14333" stroke-linecap="round" stroke-linejoin="round"/>
<path d="M143.375 75.7896C143.375 75.7896 143.538 79.4387 137.745 83.0807C133.607 85.5763 129.316 87.6924 124.909 89.4108" stroke="white" stroke-width="1.14333" stroke-linecap="round" stroke-linejoin="round"/>
<path d="M133.585 80.6293C133.585 80.6293 137.902 77.3215 138.544 75.0583C139.186 72.795 137.26 71.5764 137.26 71.5764" stroke="white" stroke-width="1.14333" stroke-linecap="round" stroke-linejoin="round"/>
<path d="M118.772 91.3327C118.772 91.3327 114.909 85.7617 114.909 81.5834C114.909 77.4052 116.356 76.7854 116.356 76.7854" stroke="white" stroke-width="1.14333" stroke-linecap="round" stroke-linejoin="round"/>
<path d="M118.988 27.9551C117.572 25.9469 116.362 23.7448 115.382 21.3952C114.011 17.9133 112.121 12.1751 115.726 8.69324C119.332 5.21135 133.229 2.95508 139.938 3.97875C146.648 5.00243 152.301 13.1988 157.622 24.6751C162.943 36.1515 164.664 44.9676 163.457 48.8604C162.249 52.7531 157.447 57.0568 151.788 56.8548C146.129 56.6529 142.861 49.4732 139.6 45.7894C136.339 42.1055 126.181 34.515 124.833 32.8715C123.246 31.1947 121.583 29.6232 119.851 28.164L118.988 27.9551Z" fill="white"/>
<mask id="mask1_215_1283" style="mask-type:luminance" maskUnits="userSpaceOnUse" x="113" y="3" width="51" height="54">
<path d="M118.987 27.9551C117.571 25.9469 116.361 23.7448 115.381 21.3952C114.01 17.9133 112.12 12.1751 115.725 8.69324C119.331 5.21135 133.228 2.95508 139.937 3.97875C146.647 5.00243 152.3 13.1988 157.621 24.6751C162.942 36.1515 164.663 44.9676 163.456 48.8604C162.248 52.7531 157.446 57.0568 151.787 56.8548C146.128 56.6529 142.86 49.4732 139.599 45.7894C136.338 42.1055 126.18 34.515 124.833 32.8715C123.245 31.1947 121.582 29.6232 119.85 28.164L118.987 27.9551Z" fill="white"/>
</mask>
<g mask="url(#mask1_215_1283)">
<path d="M144.173 5.65017C146.799 9.46633 152.977 19.1181 153.543 26.3048C154.261 35.4552 139.64 30.88 139.64 30.88C139.64 30.88 149.226 24.0137 146.349 24.8702C143.473 25.7268 141.098 23.7282 136.764 23.7282C132.429 23.7282 126.939 16.8619 126.939 19.153C126.939 21.444 127.417 22.0151 128.619 24.0276C129.821 26.0402 127.417 24.0276 133.17 33.7769C134.92 36.7644 136.273 40.2672 137.598 43.8257C138.391 44.5638 139.08 45.2184 139.593 45.8243C142.855 49.5081 146.116 56.6808 151.781 56.8897C157.446 57.0987 162.283 52.7881 163.45 48.8953C164.616 45.0026 162.93 36.1864 157.615 24.7101C153.455 15.6989 149.086 8.74906 144.173 5.65017Z" fill="#953737"/>
<path opacity="0.5" d="M144.173 5.65017C146.799 9.46633 152.977 19.1181 153.543 26.3048C154.261 35.4552 139.64 30.88 139.64 30.88C139.64 30.88 149.226 24.0137 146.349 24.8702C143.473 25.7268 141.098 23.7282 136.764 23.7282C132.429 23.7282 126.939 16.8619 126.939 19.153C126.939 21.444 127.417 22.0151 128.619 24.0276C129.821 26.0402 127.417 24.0276 133.17 33.7769C134.92 36.7644 136.273 40.2672 137.598 43.8257C138.391 44.5638 139.08 45.2184 139.593 45.8243C142.855 49.5081 146.116 56.6808 151.781 56.8897C157.446 57.0987 162.283 52.7881 163.45 48.8953C164.616 45.0026 162.93 36.1864 157.615 24.7101C153.455 15.6989 149.086 8.74906 144.173 5.65017Z" fill="white"/>
</g>
<path d="M118.988 27.9551C117.572 25.9469 116.362 23.7448 115.382 21.3952C114.011 17.9133 112.121 12.1751 115.726 8.69324C119.332 5.21135 133.229 2.95508 139.938 3.97875C146.648 5.00243 152.301 13.1988 157.622 24.6751C162.943 36.1515 164.664 44.9676 163.457 48.8604C162.249 52.7531 157.447 57.0568 151.788 56.8548C146.129 56.6529 142.861 49.4732 139.6 45.7894C136.339 42.1055 126.181 34.515 124.833 32.8715C123.246 31.1947 121.583 29.6232 119.851 28.164L118.988 27.9551Z" stroke="#263238" stroke-width="1.14333" stroke-linecap="round" stroke-linejoin="round"/>
<path d="M124.122 20.8382C124.122 20.8382 122.418 19.7101 119.577 15.4134" stroke="#263238" stroke-width="1.14333" stroke-linecap="round" stroke-linejoin="round"/>
<path d="M125.673 14.0835C125.588 13.4783 125.573 12.8622 125.626 12.252" stroke="#263238" stroke-width="1.14333" stroke-linecap="round" stroke-linejoin="round"/>
<path d="M128.468 21.7437C127.506 19.9899 126.723 18.1057 126.134 16.1309" stroke="#263238" stroke-width="1.14333" stroke-linecap="round" stroke-linejoin="round"/>
<path d="M142.294 30.7896C142.294 30.7896 147.032 31.9177 151.198 31.0194" stroke="#263238" stroke-width="1.14333" stroke-linecap="round" stroke-linejoin="round"/>
<path d="M156.886 41.3884C157.318 41.3884 157.762 41.3884 158.205 41.3884" stroke="#263238" stroke-width="1.14333" stroke-linecap="round" stroke-linejoin="round"/>
<path d="M148.923 40.0583C150.856 40.6362 152.824 41.0274 154.81 41.2282" stroke="#263238" stroke-width="1.14333" stroke-linecap="round" stroke-linejoin="round"/>
<path d="M148.007 44.348C148.007 44.348 152.715 50.4622 156.122 51.5903" stroke="#263238" stroke-width="1.14333" stroke-linecap="round" stroke-linejoin="round"/>
<path d="M144.401 47.607C144.401 46.9941 141.822 39.8214 137.359 34.6961C132.896 29.5707 124.307 28.3451 121.39 28.5471C118.473 28.749 117.096 30.3925 117.096 30.3925C117.096 30.3925 114.01 43.9231 112.464 48.6376C111.235 52.6975 111.189 57.1337 112.335 61.2281C113.404 64.8699 114.83 68.3481 116.583 71.5903C119.162 76.5067 119.162 90.0373 119.162 90.0373C119.162 90.0373 132.038 83.0735 133.584 80.6084C135.13 78.1432 134.267 69.5429 134.955 65.4412C135.096 64.605 135.303 63.7866 135.573 62.9969C136.407 61.9117 137.071 60.6569 137.534 59.2922C137.534 59.2922 144.401 48.2476 144.401 47.607Z" fill="white"/>
<mask id="mask2_215_1283" style="mask-type:luminance" maskUnits="userSpaceOnUse" x="111" y="28" width="34" height="63">
<path d="M144.401 47.607C144.401 46.9941 141.822 39.8214 137.359 34.6961C132.896 29.5707 124.308 28.3451 121.391 28.5471C118.474 28.749 117.097 30.3925 117.097 30.3925C117.097 30.3925 114.01 43.9231 112.464 48.6376C111.235 52.6975 111.19 57.1337 112.336 61.2281C113.405 64.8699 114.83 68.3481 116.583 71.5903C119.162 76.5067 119.162 90.0373 119.162 90.0373C119.162 90.0373 132.038 83.0735 133.584 80.6084C135.131 78.1432 134.267 69.5429 134.956 65.4412C135.097 64.605 135.304 63.7866 135.574 62.9969C136.408 61.9117 137.071 60.6569 137.534 59.2922C137.534 59.2922 144.401 48.2476 144.401 47.607Z" fill="white"/>
</mask>
<g mask="url(#mask2_215_1283)">
<path d="M140.55 39.1597L136.763 38.8881C135.701 44.7053 134.337 50.4382 132.679 56.0539C130.281 63.7767 126.927 68.3519 123.572 69.7865C120.217 71.221 116.384 69.2154 117.819 71.4995C118.671 72.8575 123.84 78.6583 129.599 83.8603C131.53 82.5789 133.099 81.3881 133.572 80.6291C135.118 78.1709 134.255 69.5636 134.943 65.4619C135.084 64.6257 135.291 63.8074 135.561 63.0177C136.395 61.9324 137.059 60.6777 137.522 59.3129C137.522 59.3129 144.389 48.2474 144.389 47.6277C144.4 47.182 143.024 43.2474 140.55 39.1597Z" fill="#953737"/>
<path opacity="0.5" d="M140.55 39.1597L136.763 38.8881C135.701 44.7053 134.337 50.4382 132.679 56.0539C130.281 63.7767 126.927 68.3519 123.572 69.7865C120.217 71.221 116.384 69.2154 117.819 71.4995C118.671 72.8575 123.84 78.6583 129.599 83.8603C131.53 82.5789 133.099 81.3881 133.572 80.6291C135.118 78.1709 134.255 69.5636 134.943 65.4619C135.084 64.6257 135.291 63.8074 135.561 63.0177C136.395 61.9324 137.059 60.6777 137.522 59.3129C137.522 59.3129 144.389 48.2474 144.389 47.6277C144.4 47.182 143.024 43.2474 140.55 39.1597Z" fill="white"/>
</g>
<path d="M144.401 47.607C144.401 46.9941 141.822 39.8214 137.359 34.6961C132.896 29.5707 124.307 28.3451 121.39 28.5471C118.473 28.749 117.096 30.3925 117.096 30.3925C117.096 30.3925 114.01 43.9231 112.464 48.6376C111.235 52.6975 111.189 57.1337 112.335 61.2281C113.404 64.8699 114.83 68.3481 116.583 71.5903C119.162 76.5067 119.162 90.0373 119.162 90.0373C119.162 90.0373 132.038 83.0735 133.584 80.6084C135.13 78.1432 134.267 69.5429 134.955 65.4412C135.096 64.605 135.303 63.7866 135.573 62.9969C136.407 61.9117 137.071 60.6569 137.534 59.2922C137.534 59.2922 144.401 48.2476 144.401 47.607Z" stroke="#263238" stroke-width="1.14333" stroke-linecap="round" stroke-linejoin="round"/>
<path d="M122.592 42.9203C122.592 42.9203 122.079 45.3786 120.363 46.1933C118.648 47.0081 116.414 46.8131 117.096 48.2476C117.779 49.6822 120.363 50.4969 120.363 50.4969" stroke="#263238" stroke-width="1.14333" stroke-linecap="round" stroke-linejoin="round"/>
<path d="M117.96 55.6223C117.96 55.6223 120.878 57.0569 122.593 56.0332" stroke="#263238" stroke-width="1.14333" stroke-linecap="round" stroke-linejoin="round"/>
<path d="M128.432 44.9677C128.432 44.9677 128.088 48.4496 131.694 47.8368" stroke="#263238" stroke-width="1.14333" stroke-linecap="round" stroke-linejoin="round"/>
<path d="M116.928 41.6877C116.928 41.6877 118.643 44.9677 121.047 42.9203" stroke="#263238" stroke-width="1.14333" stroke-linecap="round" stroke-linejoin="round"/>
<path d="M129.29 40.2533C129.29 40.2533 132.382 39.0207 133.753 43.5332" stroke="#263238" stroke-width="1.14333" stroke-linecap="round" stroke-linejoin="round"/>
<path d="M122.593 38.6166C122.593 38.6166 120.533 34.9258 117.616 37.586" stroke="#263238" stroke-width="1.14333" stroke-linecap="round" stroke-linejoin="round"/>
<path d="M122.768 53.9858C122.768 53.9858 122.938 57.0568 124.309 57.6766" stroke="#263238" stroke-width="1.14333" stroke-linecap="round" stroke-linejoin="round"/>
<path d="M138.392 57.8786C138.392 57.8786 133.585 64.8424 130.323 66.075" stroke="#263238" stroke-width="1.14333" stroke-linecap="round" stroke-linejoin="round"/>
<path d="M137.948 42.3006C137.948 42.3006 135.714 45.4831 135.965 48.1711C136.216 50.8591 139.687 53.5471 140.679 53.5471C141.671 53.5471 144.401 48.6725 144.401 48.6725C144.401 48.6725 140.457 43.5262 137.948 42.3006Z" fill="#263238" stroke="#263238" stroke-width="1.14333" stroke-linecap="round" stroke-linejoin="round"/>
<path d="M122.627 33.1851C122.627 33.1851 120.696 35.4901 116.035 35.4901C113.395 35.5147 110.759 35.2584 108.158 34.7241C108.158 34.7241 118.607 31.6531 122.627 33.1851Z" fill="#263238" stroke="#263238" stroke-width="1.14333" stroke-linecap="round" stroke-linejoin="round"/>
<path d="M90.0314 69.8426C90.6152 72.4393 91.9939 74.6801 93.8949 76.1222C95.796 77.5643 98.0811 78.1028 100.299 77.6311C102.516 77.1595 104.505 75.7121 105.872 73.575C107.238 71.438 107.884 68.7667 107.68 66.0891L90.0314 69.8426Z" fill="white"/>
<mask id="mask3_215_1283" style="mask-type:luminance" maskUnits="userSpaceOnUse" x="90" y="66" width="18" height="12">
<path d="M90.0314 69.8426C90.6152 72.4393 91.9939 74.6801 93.8949 76.1222C95.796 77.5643 98.0811 78.1028 100.299 77.6311C102.516 77.1595 104.505 75.7121 105.872 73.575C107.238 71.438 107.884 68.7667 107.68 66.0891L90.0314 69.8426Z" fill="white"/>
</mask>
<g mask="url(#mask3_215_1283)">
<path opacity="0.42" d="M90.0314 69.8426C90.6152 72.4393 91.9939 74.6801 93.8949 76.1222C95.796 77.5643 98.0811 78.1028 100.299 77.6311C102.516 77.1595 104.505 75.7121 105.872 73.575C107.238 71.438 107.884 68.7667 107.68 66.0891L90.0314 69.8426Z" fill="black"/>
</g>
<path d="M90.0314 69.8426C90.6152 72.4393 91.9939 74.6801 93.8949 76.1222C95.796 77.5643 98.0811 78.1028 100.299 77.6311C102.516 77.1595 104.505 75.7121 105.872 73.575C107.238 71.438 107.884 68.7667 107.68 66.0891L90.0314 69.8426Z" stroke="#263238" stroke-width="1.14333" stroke-linecap="round" stroke-linejoin="round"/>
<path d="M79.0564 42.036C79.6285 40.7286 79.9569 39.289 80.0191 37.816C80.0191 35.7268 79.3773 32.2449 78.4147 32.6349C77.452 33.0249 77.452 35.8939 77.6095 36.8549C77.6785 37.6906 77.6252 38.5342 77.452 39.348C77.452 39.348 76.6469 41.075 77.2886 42.419C77.9304 43.763 79.0564 42.036 79.0564 42.036Z" fill="white" stroke="#263238" stroke-width="1.14333" stroke-linecap="round" stroke-linejoin="round"/>
<path d="M90.0314 69.8423L72.6102 25.2184C72.5069 24.9549 72.361 24.7185 72.1809 24.5225C72.0007 24.3266 71.7899 24.1751 71.5606 24.0768C71.3313 23.9784 71.0879 23.9351 70.8445 23.9494C70.6011 23.9636 70.3625 24.0352 70.1423 24.1599C69.9201 24.2849 69.7211 24.4616 69.5569 24.6797C69.3928 24.8977 69.2668 25.1528 69.1863 25.4298C69.1059 25.7068 69.0726 26.0002 69.0885 26.2927C69.1044 26.5853 69.1691 26.8711 69.2788 27.1334L70.0431 28.9649" stroke="#263238" stroke-width="1.14333" stroke-linecap="round" stroke-linejoin="round"/>
<path d="M72.4641 34.912C72.4641 34.912 72.4641 37.217 73.2692 37.795C74.0744 38.373 78.2517 41.2769 78.4151 39.522C78.5784 37.7671 75.4979 35.49 74.5586 34.912C73.6193 34.334 73.2692 34.529 72.4641 34.912Z" stroke="#263238" stroke-width="1.14333" stroke-linecap="round" stroke-linejoin="round"/>
<path d="M73.2693 37.7951C73.2693 37.7951 70.6964 43.9302 70.6964 46.6182V56.7923C70.6964 56.7923 60.7314 69.2645 60.2472 72.5235C59.7629 75.7826 58.4969 83.6656 60.2472 83.6656C61.9975 83.6656 70.218 74.2575 70.8598 72.3425C71.5015 70.4274 75.358 57.7603 75.358 57.7603C75.681 57.1386 76.0585 56.5597 76.484 56.0333C77.1258 55.2603 77.2891 50.2742 77.2891 50.2742C77.2891 50.2742 79.0394 50.0792 79.0394 48.9302V42.0361C79.0569 40.4762 73.2693 37.7951 73.2693 37.7951Z" fill="white"/>
<mask id="mask4_215_1283" style="mask-type:luminance" maskUnits="userSpaceOnUse" x="59" y="37" width="21" height="47">
<path d="M73.2708 37.7951C73.2708 37.7951 70.6979 43.9302 70.6979 46.6182V56.7923C70.6979 56.7923 60.7329 69.2645 60.2486 72.5235C59.7644 75.7826 58.4984 83.6656 60.2486 83.6656C61.9989 83.6656 70.2194 74.2575 70.8612 72.3425C71.503 70.4274 75.3595 57.7603 75.3595 57.7603C75.6825 57.1386 76.0599 56.5597 76.4855 56.0333C77.1273 55.2603 77.2906 50.2742 77.2906 50.2742C77.2906 50.2742 79.0409 50.0792 79.0409 48.9302V42.0361C79.0584 40.4762 73.2708 37.7951 73.2708 37.7951Z" fill="white"/>
</mask>
<g mask="url(#mask4_215_1283)">
<path d="M70.8612 72.3354C71.503 70.4134 75.3594 57.7532 75.3594 57.7532C75.6824 57.1316 76.0599 56.5526 76.4855 56.0262C77.1272 55.2532 77.2906 50.2672 77.2906 50.2672C77.2906 50.2672 79.0409 50.0722 79.0409 48.9231V42.036C79.0409 41.7017 78.7667 41.3396 78.3408 40.9217L77.1739 47.1892L72.5473 47.7393C73.275 49.0164 73.821 50.4281 74.1634 51.9176C74.6301 54.1251 73.9359 57.99 72.7807 61.5763C71.6897 64.9608 60.727 80.8591 59.4843 82.6627C59.6185 83.3103 59.8577 83.7073 60.2544 83.7073C62.0164 83.6585 70.2194 74.2504 70.8612 72.3354Z" fill="#953737"/>
<path opacity="0.5" d="M70.8612 72.3354C71.503 70.4134 75.3594 57.7532 75.3594 57.7532C75.6824 57.1316 76.0599 56.5526 76.4855 56.0262C77.1272 55.2532 77.2906 50.2672 77.2906 50.2672C77.2906 50.2672 79.0409 50.0722 79.0409 48.9231V42.036C79.0409 41.7017 78.7667 41.3396 78.3408 40.9217L77.1739 47.1892L72.5473 47.7393C73.275 49.0164 73.821 50.4281 74.1634 51.9176C74.6301 54.1251 73.9359 57.99 72.7807 61.5763C71.6897 64.9608 60.727 80.8591 59.4843 82.6627C59.6185 83.3103 59.8577 83.7073 60.2544 83.7073C62.0164 83.6585 70.2194 74.2504 70.8612 72.3354Z" fill="white"/>
</g>
<path d="M73.2693 37.7951C73.2693 37.7951 70.6964 43.9302 70.6964 46.6182V56.7923C70.6964 56.7923 60.7314 69.2645 60.2472 72.5235C59.7629 75.7826 58.4969 83.6656 60.2472 83.6656C61.9975 83.6656 70.218 74.2575 70.8598 72.3425C71.5015 70.4274 75.358 57.7603 75.358 57.7603C75.681 57.1386 76.0585 56.5597 76.484 56.0333C77.1258 55.2603 77.2891 50.2742 77.2891 50.2742C77.2891 50.2742 79.0394 50.0792 79.0394 48.9302V42.0361C79.0569 40.4762 73.2693 37.7951 73.2693 37.7951Z" stroke="#263238" stroke-width="1.14333" stroke-linecap="round" stroke-linejoin="round"/>
<path d="M77.2889 50.2673L76.8047 48.7283L75.2003 48.9233" stroke="#263238" stroke-width="1.14333" stroke-linecap="round" stroke-linejoin="round"/>
<path d="M72.9491 45.4691L78.4158 45.6571" stroke="#263238" stroke-width="1.14333" stroke-linecap="round" stroke-linejoin="round"/>
<path d="M73.269 41.82L78.5724 43.359" stroke="#263238" stroke-width="1.14333" stroke-linecap="round" stroke-linejoin="round"/>
<path d="M182.756 119.926C182.756 119.926 168.754 122.802 170.218 126.451L170.702 129.139C170.702 129.139 160.574 144.459 161.052 145.065C161.531 145.671 179.722 158.498 180.346 158.498C180.971 158.498 192.406 134.125 194.816 129.327C197.225 124.529 197.552 120.121 194.495 117.816C191.437 115.511 188.077 113.401 188.077 113.401" fill="white"/>
<mask id="mask5_215_1283" style="mask-type:luminance" maskUnits="userSpaceOnUse" x="161" y="113" width="36" height="46">
<path d="M182.756 119.926C182.756 119.926 168.754 122.802 170.218 126.451L170.702 129.139C170.702 129.139 160.574 144.459 161.052 145.065C161.531 145.671 179.722 158.498 180.346 158.498C180.971 158.498 192.406 134.125 194.816 129.327C197.225 124.529 197.552 120.121 194.495 117.816C191.437 115.511 188.077 113.401 188.077 113.401" fill="white"/>
</mask>
<g mask="url(#mask5_215_1283)">
<path d="M194.495 117.816C191.438 115.511 188.077 113.401 188.077 113.401L186.123 115.803C188.106 117.823 191.49 121.548 191.659 123.561C191.898 126.423 188.305 132.147 187.826 133.31C187.348 134.473 183.03 125.302 178.958 125.302C174.886 125.302 179.133 127.112 181.292 129.926C183.45 132.739 183.725 137.314 182.044 140.177C180.469 142.865 163.491 141.514 166.554 149.139C172.109 153.101 179.909 158.519 180.329 158.519C180.971 158.519 192.389 134.146 194.798 129.348C197.208 124.55 197.552 120.121 194.495 117.816Z" fill="#953737"/>
<path opacity="0.5" d="M194.495 117.816C191.438 115.511 188.077 113.401 188.077 113.401L186.123 115.803C188.106 117.823 191.49 121.548 191.659 123.561C191.898 126.423 188.305 132.147 187.826 133.31C187.348 134.473 183.03 125.302 178.958 125.302C174.886 125.302 179.133 127.112 181.292 129.926C183.45 132.739 183.725 137.314 182.044 140.177C180.469 142.865 163.491 141.514 166.554 149.139C172.109 153.101 179.909 158.519 180.329 158.519C180.971 158.519 192.389 134.146 194.798 129.348C197.208 124.55 197.552 120.121 194.495 117.816Z" fill="white"/>
</g>
<path d="M182.756 119.926C182.756 119.926 168.754 122.802 170.218 126.451L170.702 129.139C170.702 129.139 160.574 144.459 161.052 145.065C161.531 145.671 179.722 158.498 180.346 158.498C180.971 158.498 192.406 134.125 194.816 129.327C197.225 124.529 197.552 120.121 194.495 117.816C191.437 115.511 188.077 113.401 188.077 113.401" stroke="#263238" stroke-width="1.14333" stroke-linecap="round" stroke-linejoin="round"/>
<path d="M172.792 127.983C172.792 127.983 177.774 125.685 181.31 129.905C184.845 134.125 185.493 135.852 185.493 135.852C185.369 134.13 184.947 132.458 184.256 130.939C183.564 129.421 182.616 128.09 181.473 127.029" stroke="#263238" stroke-width="1.14333" stroke-linecap="round" stroke-linejoin="round"/>
<path d="M154.301 154.279C154.301 154.279 152.691 156.772 151.087 157.761C148.676 159.389 146.634 161.693 145.136 164.474C143.204 167.956 140.795 170.999 142.218 172.343C143.051 173.14 144.07 173.609 145.136 173.687C145.136 173.687 146.098 176.375 147.388 176.563C148.028 176.671 148.673 176.736 149.319 176.758C149.319 176.758 150.439 178.102 151.069 178.102H152.709C152.709 178.102 153.35 179.063 154.797 178.102C156.244 177.141 157.714 171.382 158.175 169.467C158.636 167.552 158.66 163.513 158.66 163.513L160.912 159.676L155.766 153.534L154.301 154.279Z" fill="white"/>
<mask id="mask6_215_1283" style="mask-type:luminance" maskUnits="userSpaceOnUse" x="141" y="153" width="20" height="26">
<path d="M154.302 154.278C154.302 154.278 152.692 156.771 151.088 157.76C148.677 159.389 146.635 161.693 145.137 164.473C143.205 167.955 140.796 170.998 142.219 172.342C143.052 173.139 144.071 173.609 145.137 173.686C145.137 173.686 146.099 176.374 147.389 176.562C148.029 176.671 148.674 176.736 149.32 176.757C149.32 176.757 150.44 178.101 151.07 178.101H152.71C152.71 178.101 153.351 179.062 154.798 178.101C156.245 177.14 157.715 171.381 158.176 169.466C158.637 167.551 158.661 163.512 158.661 163.512L160.913 159.675L155.767 153.533L154.302 154.278Z" fill="white"/>
</mask>
<g mask="url(#mask6_215_1283)">
<path d="M154.302 154.278C153.908 154.868 153.486 155.428 153.036 155.957L155.334 162.287C155.334 162.287 153.584 172.454 152.33 175.26C151.822 176.409 150.766 176.848 149.693 177.133C150.074 177.598 150.557 177.924 151.087 178.074H152.709C152.709 178.074 153.351 179.035 154.798 178.074C156.245 177.113 157.715 171.354 158.176 169.439C158.637 167.523 158.66 163.484 158.66 163.484L160.912 159.647L155.766 153.505L154.302 154.278Z" fill="#953737"/>
<path opacity="0.5" d="M154.302 154.278C153.908 154.868 153.486 155.428 153.036 155.957L155.334 162.287C155.334 162.287 153.584 172.454 152.33 175.26C151.822 176.409 150.766 176.848 149.693 177.133C150.074 177.598 150.557 177.924 151.087 178.074H152.709C152.709 178.074 153.351 179.035 154.798 178.074C156.245 177.113 157.715 171.354 158.176 169.439C158.637 167.523 158.66 163.484 158.66 163.484L160.912 159.647L155.766 153.505L154.302 154.278Z" fill="white"/>
</g>
<path d="M154.301 154.279C154.301 154.279 152.691 156.772 151.087 157.761C148.676 159.389 146.634 161.693 145.136 164.474C143.204 167.956 140.795 170.999 142.218 172.343C143.051 173.14 144.07 173.609 145.136 173.687C145.136 173.687 146.098 176.375 147.388 176.563C148.028 176.671 148.673 176.736 149.319 176.758C149.319 176.758 150.439 178.102 151.069 178.102H152.709C152.709 178.102 153.35 179.063 154.797 178.102C156.244 177.141 157.714 171.382 158.175 169.467C158.636 167.552 158.66 163.513 158.66 163.513L160.912 159.676L155.766 153.534L154.301 154.279Z" stroke="#263238" stroke-width="1.14333" stroke-linecap="round" stroke-linejoin="round"/>
<path d="M160.574 142.76C160.574 142.76 179.541 154.661 180.667 155.427C181.793 156.193 182.277 158.498 181.956 160.998C181.635 163.498 183.881 172.899 181.472 172.899C179.062 172.899 168.607 169.062 162.499 165.03C156.39 160.998 153.333 155.051 153.333 154.285C153.333 153.519 160.574 142.76 160.574 142.76Z" fill="#263238" stroke="#263238" stroke-width="1.14333" stroke-linecap="round" stroke-linejoin="round"/>
<path d="M143.375 49.8842L148.013 44.3132C150.493 41.3535 146.14 35.6084 144.565 33.4845C140.87 28.5576 136.192 24.8255 130.965 22.6349C127.797 21.2839 120.913 18.7212 119.168 23.8257L116.076 32.8368C116.076 32.8368 124.489 32.0221 131.7 36.5276C138.912 41.0332 143.375 49.8842 143.375 49.8842Z" fill="white"/>
<mask id="mask7_215_1283" style="mask-type:luminance" maskUnits="userSpaceOnUse" x="116" y="20" width="33" height="30">
<path d="M143.374 49.8842L148.012 44.3132C150.492 41.3535 146.139 35.6084 144.564 33.4845C140.869 28.5576 136.191 24.8255 130.964 22.6349C127.796 21.2839 120.912 18.7212 119.167 23.8257L116.075 32.8368C116.075 32.8368 124.488 32.0221 131.699 36.5276C138.911 41.0332 143.374 49.8842 143.374 49.8842Z" fill="white"/>
</mask>
<g mask="url(#mask7_215_1283)">
<path d="M130.958 22.6697C128.269 21.5207 122.889 19.5151 120.264 22.0708C122.382 22.0012 125.725 22.7185 130.766 25.7338C141.314 32.0012 141.553 34.0277 140.83 37.1753C140.532 38.4845 139.161 40.1837 137.656 41.7227C139.837 44.1504 141.758 46.8919 143.374 49.8842L148.012 44.3132C150.491 41.3536 146.139 35.6084 144.564 33.4845C140.864 28.5694 136.184 24.8494 130.958 22.6697Z" fill="#953737"/>
<path opacity="0.5" d="M130.958 22.6697C128.269 21.5207 122.889 19.5151 120.264 22.0708C122.382 22.0012 125.725 22.7185 130.766 25.7338C141.314 32.0012 141.553 34.0277 140.83 37.1753C140.532 38.4845 139.161 40.1837 137.656 41.7227C139.837 44.1504 141.758 46.8919 143.374 49.8842L148.012 44.3132C150.491 41.3536 146.139 35.6084 144.564 33.4845C140.864 28.5694 136.184 24.8494 130.958 22.6697Z" fill="white"/>
</g>
<path d="M143.375 49.8842L148.013 44.3132C150.493 41.3535 146.14 35.6084 144.565 33.4845C140.87 28.5576 136.192 24.8255 130.965 22.6349C127.797 21.2839 120.913 18.7212 119.168 23.8257L116.076 32.8368C116.076 32.8368 124.489 32.0221 131.7 36.5276C138.912 41.0332 143.375 49.8842 143.375 49.8842Z" stroke="#263238" stroke-width="1.14333" stroke-linecap="round" stroke-linejoin="round"/>
<path d="M138.393 52.9622C138.393 52.9622 143.714 47.8369 145.26 50.9079C146.806 53.9789 143.2 58.2895 140.452 58.2895C137.704 58.2895 136.333 57.0569 136.333 57.0569" fill="white"/>
<mask id="mask8_215_1283" style="mask-type:luminance" maskUnits="userSpaceOnUse" x="136" y="49" width="10" height="10">
<path d="M138.391 52.962C138.391 52.962 143.712 47.8366 145.258 50.9077C146.804 53.9787 143.198 58.2893 140.45 58.2893C137.702 58.2893 136.331 57.0567 136.331 57.0567" fill="white"/>
</mask>
<g mask="url(#mask8_215_1283)">
<path d="M138.391 52.962C138.391 52.962 143.712 47.8366 145.258 50.9077C146.804 53.9787 143.198 58.2893 140.45 58.2893C137.702 58.2893 136.331 57.0567 136.331 57.0567" fill="#953737"/>
<path opacity="0.5" d="M138.391 52.962C138.391 52.962 143.712 47.8366 145.258 50.9077C146.804 53.9787 143.198 58.2893 140.45 58.2893C137.702 58.2893 136.331 57.0567 136.331 57.0567" fill="white"/>
</g>
<path d="M138.393 52.9622C138.393 52.9622 143.714 47.8369 145.26 50.9079C146.806 53.9789 143.2 58.2895 140.452 58.2895C137.704 58.2895 136.333 57.0569 136.333 57.0569" stroke="#263238" stroke-width="1.14333" stroke-linecap="round" stroke-linejoin="round"/>
<path d="M12.3414 237.37H200.573" stroke="#263238" stroke-width="1.14333" stroke-linecap="round" stroke-linejoin="round"/>
<path d="M105.264 169.258H48.4436V243.339C48.4436 247.795 61.2149 251.41 76.9733 251.41C92.7318 251.41 105.503 247.795 105.503 243.339L105.264 169.258Z" fill="white"/>
<mask id="mask9_215_1283" style="mask-type:luminance" maskUnits="userSpaceOnUse" x="48" y="169" width="58" height="83">
<path d="M105.263 169.258H48.4431V243.339C48.4431 247.795 61.2144 251.41 76.9728 251.41C92.7313 251.41 105.503 247.795 105.503 243.339L105.263 169.258Z" fill="white"/>
</mask>
<g mask="url(#mask9_215_1283)">
<path opacity="0.42" d="M105.263 169.258H48.4431V243.339C48.4431 247.795 61.2144 251.41 76.9728 251.41C92.7313 251.41 105.503 247.795 105.503 243.339L105.263 169.258Z" fill="black"/>
<path d="M61.955 169.258V250.198C66.2972 250.928 70.674 251.326 75.0588 251.389V169.258H61.955Z" fill="#263238"/>
<path d="M79.9769 169.258V251.361C81.3713 251.361 82.7424 251.256 84.0609 251.159V169.258H79.9769Z" fill="#263238"/>
<path d="M86.1204 169.258V250.985C87.5401 250.846 88.9014 250.678 90.2044 250.483V169.258H86.1204Z" fill="white"/>
</g>
<path d="M105.264 169.258H48.4436V243.339C48.4436 247.795 61.2149 251.41 76.9733 251.41C92.7318 251.41 105.503 247.795 105.503 243.339L105.264 169.258Z" stroke="#263238" stroke-width="1.14333" stroke-linecap="round" stroke-linejoin="round"/>
<path d="M76.9735 157.426C69.634 157.426 62.1428 157.997 54.9782 160.031C50.9759 161.173 43.683 163.582 45.3808 170.477C46.1393 173.554 49.1206 174.738 51.396 175.713C54.2104 176.794 57.1031 177.558 60.0366 177.997C65.6368 178.998 71.2935 179.48 76.956 179.439C84.3014 179.439 91.7985 178.868 98.963 176.827C101.88 176.006 105.492 175.114 107.534 172.28C107.981 171.683 108.323 170.983 108.537 170.224C108.75 169.464 108.833 168.66 108.778 167.862C108.724 167.063 108.533 166.286 108.219 165.578C107.905 164.87 107.473 164.245 106.95 163.743C104.535 161.556 101.18 160.637 98.2862 159.864C93.664 158.687 88.9695 157.961 84.2489 157.691C81.8335 157.515 79.4084 157.426 76.9735 157.426Z" fill="white"/>
<mask id="mask10_215_1283" style="mask-type:luminance" maskUnits="userSpaceOnUse" x="45" y="157" width="64" height="23">
<path d="M76.974 157.426C69.6345 157.426 62.1432 157.997 54.9787 160.031C50.9764 161.173 43.6835 163.582 45.3813 170.476C46.1398 173.554 49.1211 174.738 51.3965 175.713C54.2109 176.794 57.1036 177.558 60.0371 177.997C65.6373 178.998 71.294 179.48 76.9565 179.439C84.3019 179.439 91.799 178.868 98.9635 176.827C101.881 176.006 105.492 175.114 107.534 172.28C107.982 171.683 108.323 170.983 108.537 170.223C108.751 169.464 108.833 168.66 108.779 167.862C108.724 167.063 108.534 166.286 108.22 165.578C107.905 164.869 107.474 164.245 106.951 163.742C104.535 161.556 101.181 160.636 98.2867 159.863C93.6645 158.687 88.97 157.961 84.2494 157.691C81.834 157.514 79.4089 157.426 76.974 157.426Z" fill="white"/>
</mask>
<g mask="url(#mask10_215_1283)">
<path opacity="0.42" d="M76.974 157.426C69.6345 157.426 62.1432 157.997 54.9787 160.031C50.9764 161.173 43.6835 163.582 45.3813 170.476C46.1398 173.554 49.1211 174.738 51.3965 175.713C54.2109 176.794 57.1036 177.558 60.0371 177.997C65.6373 178.998 71.294 179.48 76.9565 179.439C84.3019 179.439 91.799 178.868 98.9635 176.827C101.881 176.006 105.492 175.114 107.534 172.28C107.982 171.683 108.323 170.983 108.537 170.223C108.751 169.464 108.833 168.66 108.779 167.862C108.724 167.063 108.534 166.286 108.22 165.578C107.905 164.869 107.474 164.245 106.951 163.742C104.535 161.556 101.181 160.636 98.2867 159.863C93.6645 158.687 88.97 157.961 84.2494 157.691C81.834 157.514 79.4089 157.426 76.974 157.426Z" fill="black"/>
</g>
<path d="M76.9735 157.426C69.634 157.426 62.1428 157.997 54.9782 160.031C50.9759 161.173 43.683 163.582 45.3808 170.477C46.1393 173.554 49.1206 174.738 51.396 175.713C54.2104 176.794 57.1031 177.558 60.0366 177.997C65.6368 178.998 71.2935 179.48 76.956 179.439C84.3014 179.439 91.7985 178.868 98.963 176.827C101.88 176.006 105.492 175.114 107.534 172.28C107.981 171.683 108.323 170.983 108.537 170.224C108.75 169.464 108.833 168.66 108.778 167.862C108.724 167.063 108.533 166.286 108.219 165.578C107.905 164.87 107.473 164.245 106.95 163.743C104.535 161.556 101.18 160.637 98.2862 159.864C93.664 158.687 88.9695 157.961 84.2489 157.691C81.8335 157.515 79.4084 157.426 76.9735 157.426Z" stroke="#263238" stroke-width="1.14333" stroke-linecap="round" stroke-linejoin="round"/>
<path d="M76.9736 173.902C92.714 173.902 105.474 170.663 105.474 166.667C105.474 162.671 92.714 159.432 76.9736 159.432C61.2331 159.432 48.473 162.671 48.473 166.667C48.473 170.663 61.2331 173.902 76.9736 173.902Z" fill="white"/>
<mask id="mask11_215_1283" style="mask-type:luminance" maskUnits="userSpaceOnUse" x="48" y="159" width="58" height="15">
<path d="M76.9731 173.903C92.7135 173.903 105.474 170.663 105.474 166.667C105.474 162.671 92.7135 159.432 76.9731 159.432C61.2327 159.432 48.4725 162.671 48.4725 166.667C48.4725 170.663 61.2327 173.903 76.9731 173.903Z" fill="white"/>
</mask>
<g mask="url(#mask11_215_1283)">
<path opacity="0.65" d="M76.9731 173.903C92.7135 173.903 105.474 170.663 105.474 166.667C105.474 162.671 92.7135 159.432 76.9731 159.432C61.2327 159.432 48.4725 162.671 48.4725 166.667C48.4725 170.663 61.2327 173.903 76.9731 173.903Z" fill="black"/>
</g>
<path d="M76.9736 173.902C92.714 173.902 105.474 170.663 105.474 166.667C105.474 162.671 92.714 159.432 76.9736 159.432C61.2331 159.432 48.473 162.671 48.473 166.667C48.473 170.663 61.2331 173.902 76.9736 173.902Z" stroke="#263238" stroke-width="1.14333" stroke-linecap="round" stroke-linejoin="round"/>
<path d="M49.1379 189.411C49.1379 189.411 44.9605 180.964 46.2207 178.269C47.4809 175.574 53.1343 178.081 54.7446 180.574C56.3549 183.067 57.8018 189.982 56.9967 190.17C56.1915 190.358 54.908 190.553 54.5813 189.216C54.2545 187.879 52.6559 182.113 51.6641 181.34C50.6723 180.567 48.4494 179.042 48.4494 180.769C48.4494 182.496 50.8648 188.429 50.5381 189.404C50.2114 190.379 50.1063 190.56 49.1379 189.411Z" fill="#263238"/>
<path d="M159.365 185.421H113.724V244.926C113.724 248.506 123.986 251.409 136.641 251.409C149.295 251.409 159.558 248.506 159.558 244.926L159.365 185.421Z" fill="white"/>
<mask id="mask12_215_1283" style="mask-type:luminance" maskUnits="userSpaceOnUse" x="113" y="185" width="47" height="67">
<path d="M159.365 185.42H113.723V244.926C113.723 248.505 123.986 251.409 136.64 251.409C149.295 251.409 159.557 248.505 159.557 244.926L159.365 185.42Z" fill="white"/>
</mask>
<g mask="url(#mask12_215_1283)">
<path opacity="0.42" d="M159.365 185.42H113.723V244.926C113.723 248.505 123.986 251.409 136.64 251.409C149.295 251.409 159.557 248.505 159.557 244.926L159.365 185.42Z" fill="black"/>
</g>
<path d="M159.365 185.421H113.724V244.926C113.724 248.506 123.986 251.409 136.641 251.409C149.295 251.409 159.558 248.506 159.558 244.926L159.365 185.421Z" stroke="#263238" stroke-width="1.14333" stroke-linecap="round" stroke-linejoin="round"/>
<path d="M124.581 185.421V250.434C128.061 251.02 131.569 251.341 135.083 251.395V185.421H124.581Z" fill="#263238"/>
<path d="M139.05 185.421V251.375C140.178 251.337 141.275 251.282 142.34 251.207V185.421H139.05Z" fill="#263238"/>
<path d="M143.986 185.421V251.068C145.123 250.957 146.226 250.824 147.276 250.671V185.421H143.986Z" fill="white"/>
<path d="M136.642 175.922C130.743 175.922 124.728 176.382 118.975 178.011C115.755 178.923 109.903 180.859 111.268 186.368C111.852 188.84 114.267 189.787 116.099 190.546C118.356 191.44 120.679 192.079 123.036 192.454C127.54 193.257 132.088 193.643 136.642 193.61C142.54 193.61 148.561 193.15 154.32 191.521C156.653 190.859 159.57 190.128 161.204 187.865C161.563 187.385 161.836 186.822 162.008 186.212C162.179 185.601 162.244 184.956 162.2 184.314C162.156 183.673 162.003 183.049 161.751 182.48C161.498 181.911 161.151 181.41 160.731 181.006C158.794 179.258 156.093 178.52 153.777 177.893C150.063 176.949 146.292 176.364 142.499 176.145C140.551 175.996 138.598 175.922 136.642 175.922Z" fill="white"/>
<mask id="mask13_215_1283" style="mask-type:luminance" maskUnits="userSpaceOnUse" x="111" y="175" width="52" height="19">
<path d="M136.639 175.922C130.741 175.922 124.726 176.381 118.973 178.011C115.752 178.923 109.901 180.859 111.266 186.367C111.849 188.839 114.265 189.786 116.097 190.546C118.354 191.439 120.676 192.078 123.034 192.454C127.537 193.256 132.086 193.643 136.639 193.61C142.538 193.61 148.559 193.15 154.317 191.52C156.651 190.859 159.568 190.128 161.202 187.864C161.561 187.384 161.834 186.822 162.005 186.211C162.177 185.601 162.242 184.955 162.198 184.314C162.154 183.672 162.001 183.048 161.748 182.479C161.496 181.911 161.149 181.409 160.729 181.005C158.792 179.257 156.091 178.519 153.775 177.892C150.061 176.948 146.289 176.364 142.497 176.144C140.548 175.996 138.596 175.922 136.639 175.922Z" fill="white"/>
</mask>
<g mask="url(#mask13_215_1283)">
<path opacity="0.42" d="M136.639 175.922C130.741 175.922 124.726 176.381 118.973 178.011C115.752 178.923 109.901 180.859 111.266 186.367C111.849 188.839 114.265 189.786 116.097 190.546C118.354 191.439 120.676 192.078 123.034 192.454C127.537 193.256 132.086 193.643 136.639 193.61C142.538 193.61 148.559 193.15 154.317 191.52C156.651 190.859 159.568 190.128 161.202 187.864C161.561 187.384 161.834 186.822 162.005 186.211C162.177 185.601 162.242 184.955 162.198 184.314C162.154 183.672 162.001 183.048 161.748 182.479C161.496 181.911 161.149 181.409 160.729 181.005C158.792 179.257 156.091 178.519 153.775 177.892C150.061 176.948 146.289 176.364 142.497 176.144C140.548 175.996 138.596 175.922 136.639 175.922Z" fill="black"/>
</g>
<path d="M136.642 175.922C130.743 175.922 124.728 176.382 118.975 178.011C115.755 178.923 109.903 180.859 111.268 186.368C111.852 188.84 114.267 189.787 116.099 190.546C118.356 191.44 120.679 192.079 123.036 192.454C127.54 193.257 132.088 193.643 136.642 193.61C142.54 193.61 148.561 193.15 154.32 191.521C156.653 190.859 159.57 190.128 161.204 187.865C161.563 187.385 161.836 186.822 162.008 186.212C162.179 185.601 162.244 184.956 162.2 184.314C162.156 183.673 162.003 183.049 161.751 182.48C161.498 181.911 161.151 181.41 160.731 181.006C158.794 179.258 156.093 178.52 153.777 177.893C150.063 176.949 146.292 176.364 142.499 176.145C140.551 175.996 138.598 175.922 136.642 175.922Z" stroke="#263238" stroke-width="1.14333" stroke-linecap="round" stroke-linejoin="round"/>
<path d="M136.64 189.16C149.284 189.16 159.534 186.557 159.534 183.345C159.534 180.134 149.284 177.531 136.64 177.531C123.997 177.531 113.747 180.134 113.747 183.345C113.747 186.557 123.997 189.16 136.64 189.16Z" fill="white"/>
<mask id="mask14_215_1283" style="mask-type:luminance" maskUnits="userSpaceOnUse" x="113" y="177" width="47" height="13">
<path d="M136.641 189.16C149.285 189.16 159.535 186.557 159.535 183.345C159.535 180.134 149.285 177.531 136.641 177.531C123.998 177.531 113.748 180.134 113.748 183.345C113.748 186.557 123.998 189.16 136.641 189.16Z" fill="white"/>
</mask>
<g mask="url(#mask14_215_1283)">
<path opacity="0.65" d="M136.641 189.16C149.285 189.16 159.535 186.557 159.535 183.345C159.535 180.134 149.285 177.531 136.641 177.531C123.998 177.531 113.748 180.134 113.748 183.345C113.748 186.557 123.998 189.16 136.641 189.16Z" fill="black"/>
</g>
<path d="M136.64 189.16C149.284 189.16 159.534 186.557 159.534 183.345C159.534 180.134 149.284 177.531 136.64 177.531C123.997 177.531 113.747 180.134 113.747 183.345C113.747 186.557 123.997 189.16 136.64 189.16Z" stroke="#263238" stroke-width="1.14333" stroke-linecap="round" stroke-linejoin="round"/>
<path d="M114.284 201.611C114.284 201.611 110.923 194.829 111.95 192.67C112.977 190.511 117.505 192.517 118.8 194.515C120.095 196.514 121.25 202.071 120.608 202.224C119.967 202.377 118.928 202.538 118.671 201.458C118.415 200.379 117.119 195.755 116.338 195.135C115.556 194.515 113.753 193.283 113.753 194.675C113.753 196.068 115.696 200.838 115.433 201.639C115.171 202.44 115.06 202.538 114.284 201.611Z" fill="#263238"/>
<path d="M62.1019 135.288C62.1019 139.606 65.375 139.606 65.375 143.916C65.375 148.227 62.1019 148.227 62.1019 152.544C62.1019 156.862 65.375 156.855 65.375 161.173C65.375 165.49 62.1019 165.49 62.1019 169.801" stroke="#263238" stroke-width="1.14333" stroke-linecap="round" stroke-linejoin="round"/>
<path d="M65.3754 126.667C65.3754 129.383 64.0743 130.386 63.1116 131.841" stroke="#263238" stroke-width="1.14333" stroke-linecap="round" stroke-linejoin="round"/>
<path d="M77.3294 134.961C77.3294 138.443 74.0563 138.443 74.0563 141.925C74.0563 145.407 77.3294 145.407 77.3294 148.889C77.3294 152.371 74.0563 152.371 74.0563 155.853C74.0563 159.334 77.3294 159.334 77.3294 162.816C77.3294 166.298 74.0563 166.298 74.0563 169.78" stroke="#263238" stroke-width="1.14333" stroke-linecap="round" stroke-linejoin="round"/>
<path d="M89.2842 126.667C89.2842 130.978 86.0112 130.978 86.0112 135.288C86.0112 139.599 89.2842 139.606 89.2842 143.916C89.2842 148.227 86.0112 148.227 86.0112 152.545C86.0112 156.862 89.2842 156.855 89.2842 161.173C89.2842 165.49 86.0112 165.49 86.0112 169.801" stroke="#263238" stroke-width="1.14333" stroke-linecap="round" stroke-linejoin="round"/>
<path d="M127.849 162.294C128.115 162.888 128.248 163.555 128.234 164.23C128.234 167.475 125.766 167.475 125.766 170.727C125.766 173.979 128.234 173.979 128.234 177.231C128.234 180.483 125.766 180.49 125.766 183.742" stroke="#263238" stroke-width="1.14333" stroke-linecap="round" stroke-linejoin="round"/>
<path d="M137.248 157.475C137.248 160.1 134.78 160.1 134.78 162.726C134.78 165.351 137.248 165.351 137.248 167.976C137.248 170.602 134.78 170.602 134.78 173.234C134.78 175.866 137.248 175.859 137.248 178.485C137.248 181.11 134.78 181.11 134.78 183.742" stroke="#263238" stroke-width="1.14333" stroke-linecap="round" stroke-linejoin="round"/>
<path d="M145.124 167.384C144.483 168.234 143.812 169.042 143.812 170.734C143.812 173.986 146.28 173.986 146.28 177.238C146.28 180.49 143.812 180.497 143.812 183.749" stroke="#263238" stroke-width="1.14333" stroke-linecap="round" stroke-linejoin="round"/>
</svg>
