<svg width="220" height="206" viewBox="0 0 220 206" fill="none" xmlns="http://www.w3.org/2000/svg">
<path d="M117.18 43.4498H1.31237V75.0643H117.18V43.4498Z" stroke="#263238" stroke-width="1.14333" stroke-linecap="round" stroke-linejoin="round"/>
<path d="M117.174 43.4269H1.31237L12.8964 23.0684H105.59L117.174 43.4269Z" stroke="#263238" stroke-width="1.14333" stroke-linecap="round" stroke-linejoin="round"/>
<path d="M12.8964 23.0686V0.573641" stroke="#263238" stroke-width="1.14333" stroke-linecap="round" stroke-linejoin="round"/>
<path d="M106.141 23.0686V0.573641" stroke="#263238" stroke-width="1.14333" stroke-linecap="round" stroke-linejoin="round"/>
<path d="M199.383 41.6373L200.052 15.3638C200.07 14.7056 200.33 14.0806 200.778 13.6214C201.226 13.1622 201.826 12.9047 202.45 12.9035C203.075 12.9033 203.675 13.1605 204.122 13.6202C204.569 14.0799 204.828 14.7056 204.844 15.3638L205.512 41.7907" stroke="#263238" stroke-width="1.14333" stroke-linecap="round" stroke-linejoin="round"/>
<path d="M200.053 15.3638L199.891 21.6481H205.001L204.84 15.3638C204.81 14.7147 204.545 14.1024 204.099 13.6539C203.653 13.2054 203.06 12.9552 202.444 12.9552C201.827 12.9552 201.234 13.2054 200.788 13.6539C200.342 14.1024 200.077 14.7147 200.048 15.3638H200.053Z" stroke="#263238" stroke-width="1.14333" stroke-linecap="round" stroke-linejoin="round"/>
<path d="M209.008 75.9949C217.69 72.1273 221.753 61.5733 218.084 52.4219C214.415 43.2705 204.403 38.9871 195.721 42.8547C187.039 46.7223 182.975 57.2763 186.644 66.4277C190.314 75.5791 200.326 79.8625 209.008 75.9949Z" stroke="#263238" stroke-width="1.14333" stroke-linecap="round" stroke-linejoin="round"/>
<path d="M215.39 62.6507C217.071 55.0727 212.606 47.4931 205.416 45.7212C198.227 43.9494 191.036 48.6563 189.355 56.2343C187.675 63.8124 192.14 71.3919 199.329 73.1638C206.518 74.9356 213.709 70.2287 215.39 62.6507Z" stroke="#263238" stroke-width="1.14333" stroke-linecap="round" stroke-linejoin="round"/>
<path d="M202.429 15.9032C202.671 15.9032 202.866 15.6972 202.866 15.443C202.866 15.1888 202.671 14.9828 202.429 14.9828C202.188 14.9828 201.993 15.1888 201.993 15.443C201.993 15.6972 202.188 15.9032 202.429 15.9032Z" stroke="#263238" stroke-width="1.14333" stroke-linecap="round" stroke-linejoin="round"/>
<path d="M166.625 38.1652L167.207 15.0849C167.223 14.5066 167.451 13.9575 167.845 13.5542C168.239 13.151 168.766 12.9256 169.315 12.9258C169.864 12.927 170.391 13.1538 170.785 13.5579C171.178 13.962 171.407 14.5118 171.422 15.0906L172.01 38.3299" stroke="#263238" stroke-width="1.14333" stroke-linecap="round" stroke-linejoin="round"/>
<path d="M167.208 15.0849L167.068 20.6135H171.563L171.423 15.0906C171.423 14.5014 171.201 13.9363 170.806 13.5197C170.411 13.103 169.875 12.869 169.316 12.869C168.757 12.869 168.22 13.103 167.825 13.5197C167.43 13.9363 167.208 14.5014 167.208 15.0906V15.0849Z" stroke="#263238" stroke-width="1.14333" stroke-linecap="round" stroke-linejoin="round"/>
<path d="M179.849 64.9974C185.708 58.8221 185.708 48.8099 179.849 42.6345C173.991 36.4592 164.492 36.4592 158.634 42.6345C152.775 48.8099 152.775 58.8221 158.634 64.9974C164.492 71.1728 173.991 71.1728 179.849 64.9974Z" stroke="#263238" stroke-width="1.14333" stroke-linecap="round" stroke-linejoin="round"/>
<path d="M177.244 62.9124C182.003 58.2561 182.279 50.4151 177.862 45.399C173.444 40.3829 166.006 40.0913 161.247 44.7476C156.488 49.4039 156.212 57.245 160.629 62.261C165.047 67.2771 172.485 67.5687 177.244 62.9124Z" stroke="#263238" stroke-width="1.14333" stroke-linecap="round" stroke-linejoin="round"/>
<path d="M169.299 15.546C169.514 15.546 169.687 15.3628 169.687 15.1369C169.687 14.9109 169.514 14.7278 169.299 14.7278C169.085 14.7278 168.911 14.9109 168.911 15.1369C168.911 15.3628 169.085 15.546 169.299 15.546Z" stroke="#263238" stroke-width="1.14333" stroke-linecap="round" stroke-linejoin="round"/>
<path d="M138.035 35.2678L138.574 14.8127C138.587 14.3002 138.789 13.8132 139.137 13.4555C139.486 13.0978 139.953 12.8977 140.439 12.8979C140.925 12.8977 141.393 13.0978 141.741 13.4555C142.089 13.8132 142.292 14.3002 142.304 14.8127L142.843 35.3928" stroke="#263238" stroke-width="1.14333" stroke-linecap="round" stroke-linejoin="round"/>
<path d="M138.553 14.818L138.429 19.7102H142.407L142.283 14.818C142.283 14.2966 142.087 13.7966 141.737 13.4279C141.387 13.0592 140.913 12.8521 140.418 12.8521C139.924 12.8521 139.449 13.0592 139.1 13.4279C138.75 13.7966 138.553 14.2966 138.553 14.818Z" stroke="#263238" stroke-width="1.14333" stroke-linecap="round" stroke-linejoin="round"/>
<path d="M140.346 63.1269C147.682 63.1269 153.628 56.8587 153.628 49.1265C153.628 41.3943 147.682 35.1261 140.346 35.1261C133.011 35.1261 127.064 41.3943 127.064 49.1265C127.064 56.8587 133.011 63.1269 140.346 63.1269Z" stroke="#263238" stroke-width="1.14333" stroke-linecap="round" stroke-linejoin="round"/>
<path d="M140.347 60.0986C146.096 60.0986 150.756 55.1863 150.756 49.1266C150.756 43.067 146.096 38.1547 140.347 38.1547C134.599 38.1547 129.938 43.067 129.938 49.1266C129.938 55.1863 134.599 60.0986 140.347 60.0986Z" stroke="#263238" stroke-width="1.14333" stroke-linecap="round" stroke-linejoin="round"/>
<path d="M140.741 14.881C140.741 14.786 140.705 14.695 140.642 14.6279C140.578 14.5607 140.492 14.523 140.402 14.523C140.312 14.523 140.225 14.5607 140.161 14.6279C140.098 14.695 140.062 14.786 140.062 14.881C140.062 14.9759 140.098 15.067 140.161 15.1341C140.225 15.2012 140.312 15.2389 140.402 15.2389C140.492 15.2389 140.578 15.2012 140.642 15.1341C140.705 15.067 140.741 14.9759 140.741 14.881Z" stroke="#263238" stroke-width="1.14333" stroke-linecap="round" stroke-linejoin="round"/>
<path d="M0.573641 166.874H196.23" stroke="#263238" stroke-width="1.14333" stroke-linecap="round" stroke-linejoin="round"/>
<path d="M0.573641 152.425H196.23" stroke="#263238" stroke-width="1.14333" stroke-linecap="round" stroke-linejoin="round"/>
<path d="M48.8713 69.928C48.8713 69.928 46.0521 79.326 45.9012 83.3943C45.7503 87.4626 51.2485 92.9287 54.348 96.0765C57.4475 99.2243 62.9727 100.622 70.6864 100.304C78.4002 99.9857 85.0951 96.2356 85.0951 96.2356C85.0951 96.2356 84.9495 121.128 85.0951 126.918C85.2406 132.708 85.6934 193.778 85.6934 193.778H138.277C138.277 193.778 136.94 136.47 137.382 129.737C137.824 123.003 140.654 103.435 140.654 103.435C140.654 103.435 160.41 113.139 164.863 113.139C169.315 113.139 180.015 100.639 179.573 97.3265C179.131 94.0139 163.677 84.4852 158.33 79.7862C152.982 75.0872 150.902 70.553 147.188 68.6723C143.474 66.7915 126.704 62.8767 122.974 62.4221C119.244 61.9675 99.0617 63.2005 93.5635 63.513C88.0652 63.8255 78.8583 73.6951 76.6321 75.4168C74.9173 76.6804 73.1296 77.8303 71.2794 78.8601C71.2794 78.8601 72.1742 77.7634 70.6864 77.4509C69.9545 77.2783 69.2095 77.1737 68.4602 77.1384C68.4602 77.1384 67.7163 68.0473 67.1234 67.1154C66.5304 66.1836 57.7656 63.9846 54.499 64.2744C51.2323 64.5642 48.8713 69.928 48.8713 69.928Z" fill="white"/>
<mask id="mask0_305_98" style="mask-type:luminance" maskUnits="userSpaceOnUse" x="45" y="62" width="135" height="132">
<path d="M48.8704 69.9278C48.8704 69.9278 46.0512 79.3257 45.9002 83.394C45.7493 87.4623 51.2475 92.9284 54.347 96.0762C57.4465 99.224 62.9717 100.622 70.6855 100.304C78.3992 99.9854 85.0941 96.2353 85.0941 96.2353C85.0941 96.2353 84.9486 121.128 85.0941 126.918C85.2396 132.708 85.6924 193.778 85.6924 193.778H138.276C138.276 193.778 136.939 136.469 137.381 129.736C137.823 123.003 140.653 103.434 140.653 103.434C140.653 103.434 160.409 113.139 164.862 113.139C169.314 113.139 180.014 100.639 179.572 97.3263C179.13 94.0137 163.676 84.485 158.329 79.786C152.981 75.087 150.901 70.5528 147.187 68.672C143.473 66.7913 126.703 62.8764 122.973 62.4218C119.243 61.9673 99.0607 63.2003 93.5625 63.5128C88.0642 63.8253 78.8574 73.6949 76.6311 75.4165C74.9163 76.6801 73.1286 77.8301 71.2784 78.8598C71.2784 78.8598 72.1732 77.7632 70.6855 77.4507C69.9535 77.278 69.2085 77.1734 68.4592 77.1382C68.4592 77.1382 67.7153 68.047 67.1224 67.1152C66.5294 66.1833 57.7646 63.9844 54.498 64.2742C51.2314 64.564 48.8704 69.9278 48.8704 69.9278Z" fill="white"/>
</mask>
<g mask="url(#mask0_305_98)">
<path d="M178.437 100.639C179.24 99.2411 179.693 98.0593 179.596 97.332C179.148 94.0421 163.699 84.4907 158.352 79.7917C153.005 75.0927 150.924 70.5585 147.21 68.6777C143.496 66.797 126.726 62.8821 122.996 62.4276C121.022 62.2947 119.043 62.2739 117.067 62.3651C121.46 67.1379 109.412 75.7348 111.994 75.962C114.576 76.1893 126.166 74.3313 132.807 71.2971C132.807 71.2971 140.779 71.0585 147.426 75.2745C153.08 78.8201 167.661 91.4739 178.437 100.639Z" fill="#953737"/>
<path d="M152.309 108.838C152.309 108.838 146.331 102.537 145.668 100.883C145.005 99.2299 149.442 81.2805 146.994 85.7124C145.56 88.298 144.665 91.1766 144.369 94.1558C144.369 94.1558 141.485 82.4851 141.264 85.2863C141.043 88.0875 141.043 95.0934 141.043 95.0934C141.043 95.0934 130.64 82.4851 132.419 88.0875C134.198 93.6899 136.192 100.224 136.192 100.224L121.977 206.426L127.955 204.324L141.237 104.662L152.309 108.838Z" fill="#953737"/>
<path d="M85.2192 101.628C85.2192 101.628 85.4402 76.6272 84.7718 77.8204C84.1034 79.0136 83.4457 84.3547 83.4457 84.3547C83.4457 84.3547 80.1252 76.184 79.6724 78.9852C79.2196 81.7864 80.3354 87.8548 80.3354 87.8548C80.3354 87.8548 76.3465 89.4912 65.5009 91.3549C54.6554 93.2186 56.8762 91.3549 63.2855 88.0877C69.6947 84.8206 74.6054 77.3545 74.6054 73.8487C74.6054 70.3429 72.3899 60.5074 65.5279 59.1267C58.6659 57.7459 44.268 71.985 43.163 74.7862C42.0579 77.5874 51.5613 73.61 51.5613 73.61C51.5613 73.61 52.8873 80.15 53.3293 82.2466C53.7713 84.3433 50.8982 87.8491 50.6718 88.7809C50.4454 89.7128 55.9868 87.6161 55.5232 88.315C55.0597 89.0139 49.7662 93.4288 50.8767 95.5538C51.9871 97.6789 61.0808 101.395 69.2743 102.588C74.6023 103.228 79.995 102.903 85.2192 101.628Z" fill="#953737"/>
<path opacity="0.5" d="M85.2192 101.628C85.2192 101.628 85.4402 76.6272 84.7718 77.8204C84.1034 79.0136 83.4457 84.3547 83.4457 84.3547C83.4457 84.3547 80.1252 76.184 79.6724 78.9852C79.2196 81.7864 80.3354 87.8548 80.3354 87.8548C80.3354 87.8548 76.3465 89.4912 65.5009 91.3549C54.6554 93.2186 56.8762 91.3549 63.2855 88.0877C69.6947 84.8206 74.6054 77.3545 74.6054 73.8487C74.6054 70.3429 72.3899 60.5074 65.5279 59.1267C58.6659 57.7459 44.268 71.985 43.163 74.7862C42.0579 77.5874 51.5613 73.61 51.5613 73.61C51.5613 73.61 52.8873 80.15 53.3293 82.2466C53.7713 84.3433 50.8982 87.8491 50.6718 88.7809C50.4454 89.7128 55.9868 87.6161 55.5232 88.315C55.0597 89.0139 49.7662 93.4288 50.8767 95.5538C51.9871 97.6789 61.0808 101.395 69.2743 102.588C74.6023 103.228 79.995 102.903 85.2192 101.628Z" fill="white"/>
<path opacity="0.5" d="M152.309 108.838C152.309 108.838 146.331 102.537 145.668 100.883C145.005 99.2299 149.442 81.2805 146.994 85.7124C145.56 88.298 144.665 91.1766 144.369 94.1558C144.369 94.1558 141.485 82.4851 141.264 85.2863C141.043 88.0875 141.043 95.0934 141.043 95.0934C141.043 95.0934 130.64 82.4851 132.419 88.0875C134.198 93.6899 136.192 100.224 136.192 100.224L121.977 206.426L127.955 204.324L141.237 104.662L152.309 108.838Z" fill="white"/>
<path d="M85.7093 193.783H138.298C138.298 193.783 137.883 176.112 137.592 159.248L85.4128 155.578C85.5637 173.777 85.7093 193.783 85.7093 193.783Z" fill="#263238"/>
<path opacity="0.5" d="M178.437 100.639C179.24 99.2411 179.693 98.0593 179.596 97.332C179.148 94.0421 163.699 84.4907 158.352 79.7917C153.005 75.0927 150.924 70.5585 147.21 68.6777C143.496 66.797 126.726 62.8821 122.996 62.4276C121.022 62.2947 119.043 62.2739 117.067 62.3651C121.46 67.1379 109.412 75.7348 111.994 75.962C114.576 76.1893 126.166 74.3313 132.807 71.2971C132.807 71.2971 140.779 71.0585 147.426 75.2745C153.08 78.8201 167.661 91.4739 178.437 100.639Z" fill="white"/>
</g>
<path d="M48.8713 69.928C48.8713 69.928 46.0521 79.326 45.9012 83.3943C45.7503 87.4626 51.2485 92.9287 54.348 96.0765C57.4475 99.2243 62.9727 100.622 70.6864 100.304C78.4002 99.9857 85.0951 96.2356 85.0951 96.2356C85.0951 96.2356 84.9495 121.128 85.0951 126.918C85.2406 132.708 85.6934 193.778 85.6934 193.778H138.277C138.277 193.778 136.94 136.47 137.382 129.737C137.824 123.003 140.654 103.435 140.654 103.435C140.654 103.435 160.41 113.139 164.863 113.139C169.315 113.139 180.015 100.639 179.573 97.3265C179.131 94.0139 163.677 84.4852 158.33 79.7862C152.982 75.0872 150.902 70.553 147.188 68.6723C143.474 66.7915 126.704 62.8767 122.974 62.4221C119.244 61.9675 99.0617 63.2005 93.5635 63.513C88.0652 63.8255 78.8583 73.6951 76.6321 75.4168C74.9173 76.6803 73.1296 77.8303 71.2794 78.8601C71.2794 78.8601 72.1742 77.7634 70.6864 77.4509C69.9545 77.2783 69.2095 77.1737 68.4602 77.1384C68.4602 77.1384 67.7163 68.0473 67.1234 67.1154C66.5304 66.1836 57.7656 63.9846 54.499 64.2744C51.2323 64.5642 48.8713 69.928 48.8713 69.928Z" stroke="#263238" stroke-width="1.14333" stroke-linecap="round" stroke-linejoin="round"/>
<path d="M85.4137 81.6726L85.1172 96.2355L81.2577 80.2635" stroke="#263238" stroke-width="1.14333" stroke-linecap="round" stroke-linejoin="round"/>
<path d="M68.4807 77.1334C68.4807 77.1334 62.686 85.1166 58.6594 85.9007" stroke="#263238" stroke-width="1.14333" stroke-linecap="round" stroke-linejoin="round"/>
<path d="M71.3019 78.8549C71.3019 78.8549 69.3721 82.9288 67.2914 83.4004" stroke="#263238" stroke-width="1.14333" stroke-linecap="round" stroke-linejoin="round"/>
<path d="M143.2 93.571L140.677 103.441L139.189 93.4176" stroke="#263238" stroke-width="1.14333" stroke-linecap="round" stroke-linejoin="round"/>
<path d="M109.484 75.2523L104.282 79.7922L99.8239 193" stroke="#263238" stroke-width="1.14333" stroke-linecap="round" stroke-linejoin="round"/>
<path d="M106.636 88.6384C106.636 88.8396 106.579 89.0363 106.473 89.2035C106.367 89.3708 106.216 89.5011 106.04 89.5781C105.864 89.6551 105.67 89.6752 105.483 89.636C105.295 89.5967 105.123 89.4999 104.989 89.3576C104.854 89.2154 104.762 89.0342 104.724 88.8369C104.687 88.6396 104.706 88.4351 104.779 88.2492C104.852 88.0634 104.976 87.9045 105.135 87.7928C105.293 87.681 105.48 87.6214 105.671 87.6214C105.926 87.6229 106.171 87.7305 106.352 87.9209C106.532 88.1113 106.634 88.3692 106.636 88.6384Z" fill="#263238"/>
<path d="M117.351 88.6384C117.351 88.8396 117.295 89.0363 117.189 89.2035C117.083 89.3708 116.932 89.5011 116.756 89.5781C116.579 89.6551 116.385 89.6752 116.198 89.636C116.011 89.5967 115.839 89.4999 115.704 89.3576C115.569 89.2154 115.477 89.0342 115.44 88.8369C115.403 88.6396 115.422 88.4351 115.495 88.2492C115.568 88.0634 115.692 87.9045 115.85 87.7928C116.009 87.681 116.195 87.6214 116.386 87.6214C116.642 87.6229 116.886 87.7305 117.067 87.9209C117.248 88.1113 117.35 88.3692 117.351 88.6384Z" fill="#263238"/>
<path d="M106.284 108.27C106.284 108.471 106.228 108.668 106.122 108.835C106.016 109.002 105.865 109.133 105.689 109.21C105.513 109.287 105.319 109.307 105.131 109.268C104.944 109.228 104.772 109.132 104.637 108.989C104.502 108.847 104.41 108.666 104.373 108.469C104.336 108.271 104.355 108.067 104.428 107.881C104.501 107.695 104.625 107.536 104.784 107.424C104.942 107.313 105.129 107.253 105.32 107.253C105.575 107.253 105.821 107.36 106.002 107.551C106.183 107.742 106.284 108 106.284 108.27Z" fill="#263238"/>
<path d="M116.978 108.27C116.978 108.471 116.921 108.668 116.815 108.835C116.709 109.002 116.559 109.133 116.382 109.21C116.206 109.287 116.012 109.307 115.825 109.268C115.638 109.228 115.466 109.132 115.331 108.989C115.196 108.847 115.104 108.666 115.067 108.469C115.029 108.271 115.049 108.067 115.122 107.881C115.195 107.695 115.318 107.536 115.477 107.424C115.636 107.313 115.822 107.253 116.013 107.253C116.14 107.253 116.265 107.279 116.382 107.33C116.499 107.382 116.606 107.456 116.695 107.551C116.785 107.645 116.856 107.758 116.904 107.881C116.953 108.004 116.978 108.137 116.978 108.27Z" fill="#263238"/>
<path d="M105.913 130.527C105.913 130.728 105.857 130.925 105.751 131.092C105.645 131.259 105.494 131.389 105.318 131.466C105.141 131.543 104.947 131.564 104.76 131.524C104.573 131.485 104.401 131.388 104.266 131.246C104.131 131.104 104.039 130.922 104.002 130.725C103.965 130.528 103.984 130.323 104.057 130.138C104.13 129.952 104.254 129.793 104.412 129.681C104.571 129.569 104.757 129.51 104.948 129.51C105.204 129.51 105.45 129.617 105.631 129.808C105.812 129.998 105.913 130.257 105.913 130.527Z" fill="#263238"/>
<path d="M116.609 130.527C116.609 130.728 116.552 130.925 116.446 131.092C116.34 131.259 116.189 131.389 116.013 131.466C115.837 131.543 115.643 131.564 115.455 131.524C115.268 131.485 115.096 131.388 114.961 131.246C114.826 131.104 114.735 130.922 114.697 130.725C114.66 130.528 114.679 130.323 114.752 130.138C114.825 129.952 114.949 129.793 115.108 129.681C115.266 129.569 115.453 129.51 115.644 129.51C115.77 129.51 115.896 129.536 116.013 129.587C116.13 129.638 116.236 129.713 116.326 129.808C116.416 129.902 116.487 130.014 116.535 130.138C116.584 130.261 116.609 130.393 116.609 130.527Z" fill="#263238"/>
<path d="M60.1636 52.8649C60.1636 52.8649 56.2987 52.8649 54.9619 53.3308C53.625 53.7967 48.7251 63.3538 47.4152 66.7971C46.6057 69.0415 46.2994 71.4529 46.5204 73.8428L53.652 70.2404L55.7327 80.2634C55.7327 80.2634 67.0203 70.8711 68.508 67.7631C69.9958 64.655 66.5783 55.8593 66.5783 55.8593L60.1636 52.8649Z" fill="#263238" stroke="#263238" stroke-width="1.14333" stroke-linecap="round" stroke-linejoin="round"/>
<path d="M109.778 59.1263C109.778 59.1263 102.647 61.1605 101.903 64.9219C101.159 68.6834 107.25 74.6268 108.442 75.7177C109.633 76.8086 120.619 74.462 125.524 73.2119C130.429 71.9619 136.962 68.6664 136.811 66.0072C136.661 63.348 133.69 62.2514 132.801 60.0582C131.912 57.8649 131.313 56.6149 128.64 56.3024C125.974 56.0275 123.292 55.9743 120.619 56.1433C119.573 56.308 109.778 59.1263 109.778 59.1263Z" fill="#263238" stroke="#263238" stroke-width="1.14333" stroke-linecap="round" stroke-linejoin="round"/>
<path d="M109.48 75.2517C109.48 75.2517 108.736 73.6891 105.911 73.8425C103.087 73.996 100.86 77.2858 100.86 77.2858C100.86 77.2858 106.359 78.5415 109.48 75.2517Z" fill="#263238" stroke="#263238" stroke-width="1.14333" stroke-linecap="round" stroke-linejoin="round"/>
<path d="M109.482 75.2518C109.482 75.2518 110.668 72.9052 113.045 75.4109C115.422 77.9167 116.905 82.1327 116.905 82.1327C116.905 82.1327 113.789 83.5418 110.819 80.252C107.849 76.9621 109.482 75.2518 109.482 75.2518Z" fill="#263238" stroke="#263238" stroke-width="1.14333" stroke-linecap="round" stroke-linejoin="round"/>
<path d="M132.51 61.9449C132.51 61.9449 132.661 64.9223 127.308 67.894C123.485 69.9302 119.521 71.6568 115.449 73.0589" stroke="white" stroke-width="1.14333" stroke-linecap="round" stroke-linejoin="round"/>
<path d="M123.464 65.8936C123.464 65.8936 127.453 63.1946 128.046 61.348C128.638 59.5013 126.86 58.507 126.86 58.507" stroke="white" stroke-width="1.14333" stroke-linecap="round" stroke-linejoin="round"/>
<path d="M109.778 74.6273C109.778 74.6273 106.21 70.0817 106.21 66.6725C106.21 63.2633 107.547 62.7576 107.547 62.7576" stroke="white" stroke-width="1.14333" stroke-linecap="round" stroke-linejoin="round"/>
<path d="M109.977 22.9151C108.669 21.2766 107.551 19.4798 106.646 17.5627C105.379 14.7217 103.633 10.0397 106.964 7.19874C110.295 4.35775 123.135 2.51679 129.334 3.35204C135.533 4.18729 140.757 10.875 145.673 20.2389C150.589 29.6028 152.179 36.7962 151.063 39.9724C149.947 43.1487 145.511 46.6601 140.282 46.4953C135.054 46.3306 132.035 40.4724 129.022 37.4667C126.009 34.4609 116.624 28.2675 115.379 26.9266C113.912 25.5584 112.375 24.2762 110.775 23.0856L109.977 22.9151Z" fill="white"/>
<mask id="mask1_305_98" style="mask-type:luminance" maskUnits="userSpaceOnUse" x="105" y="3" width="47" height="44">
<path d="M109.975 22.9156C108.668 21.277 107.549 19.4803 106.644 17.5632C105.377 14.7222 103.631 10.0402 106.962 7.19923C110.293 4.35824 123.133 2.51728 129.332 3.35253C135.531 4.18778 140.755 10.8755 145.671 20.2394C150.587 29.6033 152.177 36.7967 151.061 39.9729C149.946 43.1491 145.509 46.6606 140.28 46.4958C135.052 46.3311 132.033 40.4729 129.02 37.4672C126.007 34.4614 116.622 28.268 115.377 26.9271C113.91 25.5589 112.373 24.2767 110.773 23.0861L109.975 22.9156Z" fill="white"/>
</mask>
<g mask="url(#mask1_305_98)">
<path d="M133.248 4.7165C135.674 7.83022 141.383 15.7055 141.905 21.5693C142.569 29.0354 129.06 25.3023 129.06 25.3023C129.06 25.3023 137.917 19.6999 135.259 20.3988C132.602 21.0977 130.408 19.4669 126.403 19.4669C122.397 19.4669 117.325 13.8645 117.325 15.7339C117.325 17.6032 117.767 18.0692 118.878 19.7113C119.988 21.3533 117.767 19.7113 123.082 27.666C124.699 30.1036 125.95 32.9616 127.173 35.8651C127.907 36.4674 128.543 37.0015 129.017 37.4959C132.03 40.5016 135.043 46.3541 140.278 46.5245C145.512 46.695 149.98 43.1778 151.058 40.0016C152.137 36.8254 150.579 29.632 145.668 20.2681C141.825 12.9156 137.787 7.24498 133.248 4.7165Z" fill="#953737"/>
<path opacity="0.5" d="M133.248 4.7165C135.674 7.83022 141.383 15.7055 141.905 21.5693C142.569 29.0354 129.06 25.3023 129.06 25.3023C129.06 25.3023 137.917 19.6999 135.259 20.3988C132.602 21.0977 130.408 19.4669 126.403 19.4669C122.397 19.4669 117.325 13.8645 117.325 15.7339C117.325 17.6032 117.767 18.0692 118.878 19.7113C119.988 21.3533 117.767 19.7113 123.082 27.666C124.699 30.1036 125.95 32.9616 127.173 35.8651C127.907 36.4674 128.543 37.0015 129.017 37.4959C132.03 40.5016 135.043 46.3541 140.278 46.5245C145.512 46.695 149.98 43.1778 151.058 40.0016C152.137 36.8254 150.579 29.632 145.668 20.2681C141.825 12.9156 137.787 7.24498 133.248 4.7165Z" fill="white"/>
</g>
<path d="M109.977 22.9151C108.669 21.2766 107.551 19.4798 106.646 17.5627C105.379 14.7217 103.633 10.0397 106.964 7.19874C110.295 4.35775 123.135 2.51679 129.334 3.35204C135.533 4.18729 140.757 10.875 145.673 20.2389C150.589 29.6028 152.179 36.7962 151.063 39.9724C149.947 43.1487 145.511 46.6601 140.282 46.4953C135.054 46.3306 132.035 40.4724 129.022 37.4667C126.009 34.4609 116.624 28.2675 115.379 26.9266C113.912 25.5584 112.375 24.2762 110.775 23.0856L109.977 22.9151Z" stroke="#263238" stroke-width="1.14333" stroke-linecap="round" stroke-linejoin="round"/>
<path d="M114.721 17.1088C114.721 17.1088 113.147 16.1884 110.522 12.6826" stroke="#263238" stroke-width="1.14333" stroke-linecap="round" stroke-linejoin="round"/>
<path d="M116.154 11.5973C116.076 11.1035 116.061 10.6008 116.111 10.1029" stroke="#263238" stroke-width="1.14333" stroke-linecap="round" stroke-linejoin="round"/>
<path d="M118.737 17.8474C117.849 16.4164 117.125 14.879 116.581 13.2677" stroke="#263238" stroke-width="1.14333" stroke-linecap="round" stroke-linejoin="round"/>
<path d="M131.512 25.2285C131.512 25.2285 135.889 26.1489 139.738 25.416" stroke="#263238" stroke-width="1.14333" stroke-linecap="round" stroke-linejoin="round"/>
<path d="M144.993 33.8759C145.392 33.8759 145.802 33.8759 146.211 33.8759" stroke="#263238" stroke-width="1.14333" stroke-linecap="round" stroke-linejoin="round"/>
<path d="M137.636 32.7904C139.421 33.2619 141.24 33.5812 143.075 33.745" stroke="#263238" stroke-width="1.14333" stroke-linecap="round" stroke-linejoin="round"/>
<path d="M136.79 36.2905C136.79 36.2905 141.14 41.2793 144.288 42.1998" stroke="#263238" stroke-width="1.14333" stroke-linecap="round" stroke-linejoin="round"/>
<path d="M133.457 38.9496C133.457 38.4496 131.075 32.5971 126.951 28.4152C122.827 24.2332 114.893 23.2332 112.198 23.398C109.502 23.5628 108.23 24.9037 108.23 24.9037C108.23 24.9037 105.379 35.9438 103.95 39.7905C102.815 43.1031 102.773 46.7228 103.832 50.0635C104.819 53.035 106.136 55.873 107.756 58.5183C110.138 62.5298 110.138 73.5699 110.138 73.5699C110.138 73.5699 122.035 67.8879 123.464 65.8765C124.892 63.8651 124.094 56.8478 124.73 53.5011C124.861 52.8189 125.052 52.1511 125.302 51.5068C126.072 50.6213 126.685 49.5975 127.113 48.4839C127.113 48.4839 133.457 39.4723 133.457 38.9496Z" fill="white"/>
<mask id="mask2_305_98" style="mask-type:luminance" maskUnits="userSpaceOnUse" x="103" y="23" width="31" height="51">
<path d="M133.46 38.9498C133.46 38.4498 131.078 32.5974 126.954 28.4154C122.83 24.2335 114.896 23.2334 112.2 23.3982C109.505 23.563 108.233 24.9039 108.233 24.9039C108.233 24.9039 105.382 35.944 103.953 39.7907C102.817 43.1033 102.776 46.723 103.835 50.0638C104.822 53.0352 106.139 55.8732 107.759 58.5186C110.141 62.53 110.141 73.5701 110.141 73.5701C110.141 73.5701 122.038 67.8882 123.466 65.8767C124.895 63.8653 124.097 56.8481 124.733 53.5014C124.864 52.8191 125.055 52.1513 125.305 51.507C126.075 50.6215 126.688 49.5977 127.116 48.4842C127.116 48.4842 133.46 39.4726 133.46 38.9498Z" fill="white"/>
</mask>
<g mask="url(#mask2_305_98)">
<path d="M129.901 32.057L126.403 31.8354C125.421 36.5818 124.161 41.2595 122.63 45.8415C120.414 52.1428 117.315 55.8759 114.215 57.0463C111.116 58.2168 107.574 56.5804 108.9 58.4441C109.687 59.5521 114.463 64.2852 119.784 68.5296C121.568 67.4841 123.018 66.5125 123.454 65.8932C124.883 63.8874 124.085 56.8645 124.721 53.5178C124.852 52.8356 125.043 52.1678 125.293 51.5235C126.063 50.638 126.676 49.6142 127.104 48.5006C127.104 48.5006 133.448 39.472 133.448 38.9663C133.459 38.6026 132.187 35.3923 129.901 32.057Z" fill="#953737"/>
<path opacity="0.5" d="M129.901 32.057L126.403 31.8354C125.421 36.5818 124.161 41.2595 122.63 45.8415C120.414 52.1428 117.315 55.8759 114.215 57.0463C111.116 58.2168 107.574 56.5804 108.9 58.4441C109.687 59.5521 114.463 64.2852 119.784 68.5296C121.568 67.4841 123.018 66.5125 123.454 65.8932C124.883 63.8874 124.085 56.8645 124.721 53.5178C124.852 52.8356 125.043 52.1678 125.293 51.5235C126.063 50.638 126.676 49.6142 127.104 48.5006C127.104 48.5006 133.448 39.472 133.448 38.9663C133.459 38.6026 132.187 35.3923 129.901 32.057Z" fill="white"/>
</g>
<path d="M133.457 38.9496C133.457 38.4496 131.075 32.5971 126.951 28.4152C122.827 24.2332 114.893 23.2332 112.198 23.398C109.502 23.5628 108.23 24.9037 108.23 24.9037C108.23 24.9037 105.379 35.9438 103.95 39.7905C102.815 43.1031 102.773 46.7228 103.832 50.0635C104.819 53.035 106.136 55.873 107.756 58.5183C110.138 62.5298 110.138 73.5699 110.138 73.5699C110.138 73.5699 122.035 67.8879 123.464 65.8765C124.892 63.8651 124.094 56.8478 124.73 53.5011C124.861 52.8189 125.052 52.1511 125.302 51.5068C126.072 50.6213 126.685 49.5975 127.113 48.4839C127.113 48.4839 133.457 39.4723 133.457 38.9496Z" stroke="#263238" stroke-width="1.14333" stroke-linecap="round" stroke-linejoin="round"/>
<path d="M113.309 35.1263C113.309 35.1263 112.834 37.1321 111.25 37.7969C109.665 38.4617 107.6 38.3026 108.231 39.4731C108.862 40.6435 111.25 41.3083 111.25 41.3083" stroke="#263238" stroke-width="1.14333" stroke-linecap="round" stroke-linejoin="round"/>
<path d="M109.03 45.4901C109.03 45.4901 111.725 46.6606 113.31 45.8253" stroke="#263238" stroke-width="1.14333" stroke-linecap="round" stroke-linejoin="round"/>
<path d="M118.704 36.7963C118.704 36.7963 118.386 39.6373 121.718 39.1373" stroke="#263238" stroke-width="1.14333" stroke-linecap="round" stroke-linejoin="round"/>
<path d="M108.074 34.1201C108.074 34.1201 109.659 36.7964 111.879 35.1259" stroke="#263238" stroke-width="1.14333" stroke-linecap="round" stroke-linejoin="round"/>
<path d="M119.496 32.9497C119.496 32.9497 122.353 31.944 123.62 35.6259" stroke="#263238" stroke-width="1.14333" stroke-linecap="round" stroke-linejoin="round"/>
<path d="M113.307 31.6141C113.307 31.6141 111.404 28.6026 108.709 30.7732" stroke="#263238" stroke-width="1.14333" stroke-linecap="round" stroke-linejoin="round"/>
<path d="M113.471 44.1545C113.471 44.1545 113.627 46.6602 114.894 47.1659" stroke="#263238" stroke-width="1.14333" stroke-linecap="round" stroke-linejoin="round"/>
<path d="M127.907 47.3308C127.907 47.3308 123.465 53.0128 120.452 54.0185" stroke="#263238" stroke-width="1.14333" stroke-linecap="round" stroke-linejoin="round"/>
<path d="M127.495 34.6203C127.495 34.6203 125.431 37.217 125.663 39.4102C125.895 41.6035 129.102 43.7967 130.018 43.7967C130.935 43.7967 133.457 39.8193 133.457 39.8193C133.457 39.8193 129.813 35.6203 127.495 34.6203Z" fill="#263238" stroke="#263238" stroke-width="1.14333" stroke-linecap="round" stroke-linejoin="round"/>
<path d="M113.34 27.1832C113.34 27.1832 111.556 29.0639 107.249 29.0639C104.81 29.084 102.375 28.8748 99.9718 28.4389C99.9718 28.4389 109.626 25.9332 113.34 27.1832Z" fill="#263238" stroke="#263238" stroke-width="1.14333" stroke-linecap="round" stroke-linejoin="round"/>
<path d="M83.224 57.0926C83.7634 59.2114 85.0372 61.0397 86.7936 62.2164C88.55 63.3931 90.6613 63.8324 92.7101 63.4476C94.759 63.0628 96.5964 61.8818 97.8591 60.1381C99.1219 58.3944 99.7182 56.2148 99.5301 54.0301L83.224 57.0926Z" fill="white"/>
<mask id="mask3_305_98" style="mask-type:luminance" maskUnits="userSpaceOnUse" x="83" y="54" width="17" height="10">
<path d="M83.226 57.0924C83.7654 59.2111 85.0391 61.0395 86.7956 62.2162C88.552 63.3928 90.6632 63.8322 92.7121 63.4473C94.761 63.0625 96.5983 61.8816 97.8611 60.1378C99.1239 58.3941 99.7201 56.2145 99.5321 54.0298L83.226 57.0924Z" fill="white"/>
</mask>
<g mask="url(#mask3_305_98)">
<path opacity="0.42" d="M83.226 57.0924C83.7654 59.2111 85.0391 61.0395 86.7956 62.2162C88.552 63.3928 90.6632 63.8322 92.7121 63.4473C94.761 63.0625 96.5983 61.8816 97.8611 60.1378C99.1239 58.3941 99.7201 56.2145 99.5321 54.0298L83.226 57.0924Z" fill="black"/>
</g>
<path d="M83.224 57.0926C83.7634 59.2114 85.0372 61.0397 86.7936 62.2164C88.55 63.3931 90.6613 63.8324 92.7101 63.4476C94.759 63.0628 96.5964 61.8818 97.8591 60.1381C99.1219 58.3944 99.7182 56.2148 99.5301 54.0301L83.224 57.0926Z" stroke="#263238" stroke-width="1.14333" stroke-linecap="round" stroke-linejoin="round"/>
<path d="M73.0839 34.4044C73.6124 33.3376 73.9158 32.163 73.9733 30.9611C73.9733 29.2565 73.3803 26.4155 72.4909 26.7337C71.6015 27.0519 71.6015 29.3929 71.747 30.177C71.8107 30.8588 71.7615 31.5471 71.6015 32.2111C71.6015 32.2111 70.8576 33.6203 71.4506 34.7169C72.0435 35.8135 73.0839 34.4044 73.0839 34.4044Z" fill="white" stroke="#263238" stroke-width="1.14333" stroke-linecap="round" stroke-linejoin="round"/>
<path d="M83.2248 57.0924L67.1289 20.6822C67.0335 20.4673 66.8987 20.2743 66.7322 20.1145C66.5658 19.9546 66.3711 19.831 66.1592 19.7508C65.9473 19.6705 65.7224 19.6352 65.4976 19.6468C65.2727 19.6584 65.0522 19.7168 64.8488 19.8186C64.6435 19.9205 64.4596 20.0647 64.3079 20.2427C64.1563 20.4206 64.0399 20.6287 63.9655 20.8547C63.8912 21.0807 63.8605 21.3201 63.8752 21.5588C63.8898 21.7975 63.9496 22.0307 64.051 22.2448L64.7571 23.7391" stroke="#263238" stroke-width="1.14333" stroke-linecap="round" stroke-linejoin="round"/>
<path d="M66.9936 28.5916C66.9936 28.5916 66.9936 30.4723 67.7374 30.9439C68.4813 31.4155 72.3409 33.7849 72.4918 32.3531C72.6427 30.9212 69.7966 29.0632 68.9287 28.5916C68.0609 28.12 67.7374 28.2791 66.9936 28.5916Z" stroke="#263238" stroke-width="1.14333" stroke-linecap="round" stroke-linejoin="round"/>
<path d="M67.7368 30.9441C67.7368 30.9441 65.3597 35.9499 65.3597 38.1431V46.4445C65.3597 46.4445 56.1528 56.6209 55.7054 59.2801C55.258 61.9393 54.0883 68.3713 55.7054 68.3713C57.3225 68.3713 64.9177 60.6949 65.5106 59.1324C66.1035 57.5698 69.6666 47.2343 69.6666 47.2343C69.9651 46.727 70.3138 46.2547 70.707 45.8252C71.2999 45.1945 71.4509 41.1262 71.4509 41.1262C71.4509 41.1262 73.068 40.9671 73.068 40.0295V34.4044C73.0842 33.1316 67.7368 30.9441 67.7368 30.9441Z" fill="white"/>
<mask id="mask4_305_98" style="mask-type:luminance" maskUnits="userSpaceOnUse" x="54" y="30" width="20" height="39">
<path d="M67.7368 30.9438C67.7368 30.9438 65.3597 35.9496 65.3597 38.1429V46.4443C65.3597 46.4443 56.1528 56.6207 55.7054 59.2799C55.258 61.939 54.0883 68.371 55.7054 68.371C57.3225 68.371 64.9177 60.6947 65.5106 59.1321C66.1035 57.5696 69.6666 47.2341 69.6666 47.2341C69.9651 46.7268 70.3138 46.2544 70.707 45.8249C71.2999 45.1942 71.4509 41.1259 71.4509 41.1259C71.4509 41.1259 73.068 40.9668 73.068 40.0293V34.4041C73.0842 33.1314 67.7368 30.9438 67.7368 30.9438Z" fill="white"/>
</mask>
<g mask="url(#mask4_305_98)">
<path d="M65.5123 59.126C66.1053 57.5578 69.6684 47.2279 69.6684 47.2279C69.9668 46.7207 70.3155 46.2483 70.7087 45.8188C71.3017 45.1881 71.4526 41.1198 71.4526 41.1198C71.4526 41.1198 73.0697 40.9607 73.0697 40.0232V34.4037C73.0697 34.131 72.8164 33.8355 72.4229 33.4946L71.3448 38.6084L67.0702 39.0572C67.7425 40.0993 68.247 41.2512 68.5633 42.4664C68.9946 44.2676 68.3531 47.4211 67.2858 50.3473C66.2778 53.1088 56.1491 66.0808 55.001 67.5524C55.125 68.0808 55.346 68.4047 55.7125 68.4047C57.3404 68.3649 64.9194 60.6886 65.5123 59.126Z" fill="#953737"/>
<path opacity="0.5" d="M65.5123 59.126C66.1053 57.5578 69.6684 47.2279 69.6684 47.2279C69.9668 46.7207 70.3155 46.2483 70.7087 45.8188C71.3017 45.1881 71.4526 41.1198 71.4526 41.1198C71.4526 41.1198 73.0697 40.9607 73.0697 40.0232V34.4037C73.0697 34.131 72.8164 33.8355 72.4229 33.4946L71.3448 38.6084L67.0702 39.0572C67.7425 40.0993 68.247 41.2512 68.5633 42.4664C68.9946 44.2676 68.3531 47.4211 67.2858 50.3473C66.2778 53.1088 56.1491 66.0808 55.001 67.5524C55.125 68.0808 55.346 68.4047 55.7125 68.4047C57.3404 68.3649 64.9194 60.6886 65.5123 59.126Z" fill="white"/>
</g>
<path d="M67.7368 30.9441C67.7368 30.9441 65.3597 35.9499 65.3597 38.1431V46.4445C65.3597 46.4445 56.1528 56.6209 55.7054 59.2801C55.258 61.9393 54.0883 68.3713 55.7054 68.3713C57.3225 68.3713 64.9177 60.6949 65.5106 59.1324C66.1035 57.5698 69.6666 47.2343 69.6666 47.2343C69.9651 46.727 70.3138 46.2547 70.707 45.8252C71.2999 45.1945 71.4509 41.1262 71.4509 41.1262C71.4509 41.1262 73.068 40.9671 73.068 40.0295V34.4044C73.0842 33.1316 67.7368 30.9441 67.7368 30.9441Z" stroke="#263238" stroke-width="1.14333" stroke-linecap="round" stroke-linejoin="round"/>
<path d="M71.4506 41.1209L71.0032 39.8651L69.5208 40.0242" stroke="#263238" stroke-width="1.14333" stroke-linecap="round" stroke-linejoin="round"/>
<path d="M67.4403 37.2056L72.4912 37.359" stroke="#263238" stroke-width="1.14333" stroke-linecap="round" stroke-linejoin="round"/>
<path d="M67.7372 34.2279L72.6371 35.4836" stroke="#263238" stroke-width="1.14333" stroke-linecap="round" stroke-linejoin="round"/>
<path d="M168.894 97.9573C168.894 97.9573 155.957 100.304 157.31 103.281L157.758 105.475C157.758 105.475 148.4 117.975 148.842 118.469C149.284 118.964 166.091 129.43 166.668 129.43C167.245 129.43 177.81 109.543 180.037 105.628C182.263 101.713 182.565 98.1164 179.74 96.2357C176.915 94.3549 173.811 92.6333 173.811 92.6333" fill="white"/>
<mask id="mask5_305_98" style="mask-type:luminance" maskUnits="userSpaceOnUse" x="148" y="92" width="34" height="38">
<path d="M168.895 97.9573C168.895 97.9573 155.958 100.304 157.311 103.281L157.759 105.475C157.759 105.475 148.401 117.975 148.843 118.469C149.285 118.964 166.092 129.43 166.669 129.43C167.246 129.43 177.811 109.543 180.037 105.628C182.264 101.713 182.566 98.1164 179.741 96.2357C176.916 94.3549 173.812 92.6333 173.812 92.6333" fill="white"/>
</mask>
<g mask="url(#mask5_305_98)">
<path d="M179.742 96.2359C176.917 94.3552 173.813 92.6335 173.813 92.6335L172.007 94.5938C173.839 96.2416 176.966 99.2814 177.122 100.924C177.343 103.259 174.023 107.929 173.581 108.878C173.139 109.827 169.15 102.344 165.387 102.344C161.625 102.344 165.549 103.821 167.543 106.117C169.538 108.412 169.791 112.145 168.239 114.481C166.783 116.674 151.097 115.572 153.927 121.793C159.059 125.026 166.266 129.447 166.654 129.447C167.247 129.447 177.796 109.56 180.022 105.645C182.249 101.73 182.567 98.1166 179.742 96.2359Z" fill="#953737"/>
<path opacity="0.5" d="M179.742 96.2359C176.917 94.3552 173.813 92.6335 173.813 92.6335L172.007 94.5938C173.839 96.2416 176.966 99.2814 177.122 100.924C177.343 103.259 174.023 107.929 173.581 108.878C173.139 109.827 169.15 102.344 165.387 102.344C161.625 102.344 165.549 103.821 167.543 106.117C169.538 108.412 169.791 112.145 168.239 114.481C166.783 116.674 151.097 115.572 153.927 121.793C159.059 125.026 166.266 129.447 166.654 129.447C167.247 129.447 177.796 109.56 180.022 105.645C182.249 101.73 182.567 98.1166 179.742 96.2359Z" fill="white"/>
</g>
<path d="M168.894 97.9573C168.894 97.9573 155.957 100.304 157.31 103.281L157.758 105.475C157.758 105.475 148.4 117.975 148.842 118.469C149.284 118.964 166.091 129.43 166.668 129.43C167.245 129.43 177.81 109.543 180.037 105.628C182.263 101.713 182.565 98.1164 179.74 96.2357C176.915 94.3549 173.811 92.6333 173.811 92.6333" stroke="#263238" stroke-width="1.14333" stroke-linecap="round" stroke-linejoin="round"/>
<path d="M159.689 104.531C159.689 104.531 164.292 102.656 167.559 106.099C170.825 109.543 171.424 110.952 171.424 110.952C171.309 109.547 170.92 108.182 170.281 106.943C169.642 105.704 168.766 104.618 167.71 103.753" stroke="#263238" stroke-width="1.14333" stroke-linecap="round" stroke-linejoin="round"/>
<path d="M142.605 125.987C142.605 125.987 141.117 128.021 139.635 128.828C137.408 130.156 135.521 132.036 134.137 134.305C132.352 137.146 130.126 139.629 131.441 140.726C132.211 141.376 133.152 141.759 134.137 141.822C134.137 141.822 135.026 144.015 136.217 144.169C136.809 144.257 137.404 144.31 138.002 144.328C138.002 144.328 139.037 145.425 139.619 145.425H141.133C141.133 145.425 141.726 146.209 143.063 145.425C144.4 144.641 145.758 139.942 146.184 138.379C146.61 136.816 146.632 133.521 146.632 133.521L148.712 130.39L143.958 125.379L142.605 125.987Z" fill="white"/>
<mask id="mask6_305_98" style="mask-type:luminance" maskUnits="userSpaceOnUse" x="131" y="125" width="18" height="21">
<path d="M142.608 125.986C142.608 125.986 141.12 128.02 139.638 128.827C137.411 130.156 135.524 132.036 134.14 134.305C132.355 137.146 130.129 139.629 131.444 140.725C132.214 141.376 133.155 141.759 134.14 141.822C134.14 141.822 135.029 144.015 136.22 144.169C136.812 144.257 137.407 144.31 138.005 144.328C138.005 144.328 139.04 145.424 139.622 145.424H141.136C141.136 145.424 141.729 146.209 143.066 145.424C144.403 144.64 145.761 139.941 146.187 138.379C146.613 136.816 146.635 133.521 146.635 133.521L148.715 130.39L143.961 125.378L142.608 125.986Z" fill="white"/>
</mask>
<g mask="url(#mask6_305_98)">
<path d="M142.605 125.986C142.242 126.467 141.851 126.925 141.435 127.356L143.559 132.521C143.559 132.521 141.942 140.816 140.783 143.106C140.314 144.044 139.338 144.402 138.347 144.635C138.699 145.014 139.145 145.28 139.635 145.402H141.133C141.133 145.402 141.726 146.186 143.063 145.402C144.4 144.618 145.758 139.919 146.184 138.356C146.61 136.794 146.632 133.498 146.632 133.498L148.712 130.367L143.958 125.356L142.605 125.986Z" fill="#953737"/>
<path opacity="0.5" d="M142.605 125.986C142.242 126.467 141.851 126.925 141.435 127.356L143.559 132.521C143.559 132.521 141.942 140.816 140.783 143.106C140.314 144.044 139.338 144.402 138.347 144.635C138.699 145.014 139.145 145.28 139.635 145.402H141.133C141.133 145.402 141.726 146.186 143.063 145.402C144.4 144.618 145.758 139.919 146.184 138.356C146.61 136.794 146.632 133.498 146.632 133.498L148.712 130.367L143.958 125.356L142.605 125.986Z" fill="white"/>
</g>
<path d="M142.605 125.987C142.605 125.987 141.117 128.021 139.635 128.828C137.408 130.156 135.521 132.036 134.137 134.305C132.352 137.146 130.126 139.629 131.441 140.726C132.211 141.376 133.152 141.759 134.137 141.822C134.137 141.822 135.026 144.015 136.217 144.169C136.809 144.257 137.404 144.31 138.002 144.328C138.002 144.328 139.037 145.425 139.619 145.425H141.133C141.133 145.425 141.726 146.209 143.063 145.425C144.4 144.641 145.758 139.942 146.184 138.379C146.61 136.816 146.632 133.521 146.632 133.521L148.712 130.39L143.958 125.379L142.605 125.987Z" stroke="#263238" stroke-width="1.14333" stroke-linecap="round" stroke-linejoin="round"/>
<path d="M148.399 116.588C148.399 116.588 165.923 126.299 166.964 126.924C168.004 127.549 168.451 129.429 168.155 131.469C167.858 133.509 169.934 141.18 167.708 141.18C165.481 141.18 155.822 138.049 150.178 134.759C144.534 131.469 141.709 126.617 141.709 125.992C141.709 125.367 148.399 116.588 148.399 116.588Z" fill="#263238" stroke="#263238" stroke-width="1.14333" stroke-linecap="round" stroke-linejoin="round"/>
<path d="M132.509 40.8078L136.795 36.2622C139.086 33.8474 135.065 29.1597 133.609 27.4267C130.195 23.4068 125.873 20.3616 121.044 18.5742C118.117 17.4719 111.756 15.3809 110.145 19.5458L107.288 26.8983C107.288 26.8983 115.061 26.2335 121.723 29.9098C128.386 33.586 132.509 40.8078 132.509 40.8078Z" fill="white"/>
<mask id="mask7_305_98" style="mask-type:luminance" maskUnits="userSpaceOnUse" x="107" y="17" width="31" height="24">
<path d="M132.508 40.8081L136.793 36.2625C139.084 33.8476 135.063 29.16 133.608 27.427C130.194 23.407 125.872 20.3619 121.043 18.5745C118.116 17.4721 111.755 15.3812 110.143 19.5461L107.286 26.8986C107.286 26.8986 115.059 26.2338 121.722 29.91C128.384 33.5863 132.508 40.8081 132.508 40.8081Z" fill="white"/>
</mask>
<g mask="url(#mask7_305_98)">
<path d="M121.036 18.6029C118.551 17.6653 113.581 16.0289 111.156 18.1142C113.112 18.0574 116.201 18.6426 120.858 21.1029C130.604 26.2167 130.825 27.8702 130.157 30.4384C129.882 31.5067 128.615 32.8931 127.225 34.1488C129.24 36.1296 131.014 38.3665 132.507 40.8081L136.793 36.2625C139.083 33.8476 135.062 29.16 133.607 27.427C130.189 23.4166 125.865 20.3813 121.036 18.6029Z" fill="#953737"/>
<path opacity="0.5" d="M121.036 18.6029C118.551 17.6653 113.581 16.0289 111.156 18.1142C113.112 18.0574 116.201 18.6426 120.858 21.1029C130.604 26.2167 130.825 27.8702 130.157 30.4384C129.882 31.5067 128.615 32.8931 127.225 34.1488C129.24 36.1296 131.014 38.3665 132.507 40.8081L136.793 36.2625C139.083 33.8476 135.062 29.16 133.607 27.427C130.189 23.4166 125.865 20.3813 121.036 18.6029Z" fill="white"/>
</g>
<path d="M132.509 40.8078L136.795 36.2622C139.086 33.8474 135.065 29.1597 133.609 27.4267C130.195 23.4068 125.873 20.3616 121.044 18.5742C118.117 17.4719 111.756 15.3809 110.145 19.5458L107.288 26.8983C107.288 26.8983 115.061 26.2335 121.723 29.9098C128.386 33.586 132.509 40.8078 132.509 40.8078Z" stroke="#263238" stroke-width="1.14333" stroke-linecap="round" stroke-linejoin="round"/>
<path d="M127.906 43.3197C127.906 43.3197 132.823 39.1378 134.251 41.6435C135.68 44.1493 132.348 47.6664 129.809 47.6664C127.27 47.6664 126.004 46.6607 126.004 46.6607" fill="white"/>
<mask id="mask8_305_98" style="mask-type:luminance" maskUnits="userSpaceOnUse" x="126" y="40" width="9" height="8">
<path d="M127.905 43.319C127.905 43.319 132.821 39.137 134.249 41.6428C135.678 44.1486 132.346 47.6657 129.807 47.6657C127.268 47.6657 126.002 46.66 126.002 46.66" fill="white"/>
</mask>
<g mask="url(#mask8_305_98)">
<path d="M127.905 43.319C127.905 43.319 132.821 39.137 134.249 41.6428C135.678 44.1486 132.346 47.6657 129.807 47.6657C127.268 47.6657 126.002 46.66 126.002 46.66" fill="#953737"/>
<path opacity="0.5" d="M127.905 43.319C127.905 43.319 132.821 39.137 134.249 41.6428C135.678 44.1486 132.346 47.6657 129.807 47.6657C127.268 47.6657 126.002 46.66 126.002 46.66" fill="white"/>
</g>
<path d="M127.906 43.3197C127.906 43.3197 132.823 39.1378 134.251 41.6435C135.68 44.1493 132.348 47.6664 129.809 47.6664C127.27 47.6664 126.004 46.6607 126.004 46.6607" stroke="#263238" stroke-width="1.14333" stroke-linecap="round" stroke-linejoin="round"/>
<path d="M11.4444 193.783H185.356" stroke="#263238" stroke-width="1.14333" stroke-linecap="round" stroke-linejoin="round"/>
<path d="M97.2974 138.208H44.7999V198.653C44.7999 202.29 56.5995 205.239 71.1591 205.239C85.7187 205.239 97.5184 202.29 97.5184 198.653L97.2974 138.208Z" fill="white"/>
<mask id="mask9_305_98" style="mask-type:luminance" maskUnits="userSpaceOnUse" x="44" y="138" width="54" height="68">
<path d="M97.2974 138.208H44.7999V198.653C44.7999 202.29 56.5995 205.239 71.1591 205.239C85.7187 205.239 97.5184 202.29 97.5184 198.653L97.2974 138.208Z" fill="white"/>
</mask>
<g mask="url(#mask9_305_98)">
<path opacity="0.42" d="M97.2974 138.208H44.7999V198.653C44.7999 202.29 56.5995 205.239 71.1591 205.239C85.7187 205.239 97.5184 202.29 97.5184 198.653L97.2974 138.208Z" fill="black"/>
<path d="M57.2833 138.208V204.25C61.2952 204.846 65.3391 205.17 69.3902 205.222V138.208H57.2833Z" fill="#263238"/>
<path d="M73.9336 138.208V205.199C75.2219 205.199 76.4887 205.114 77.7069 205.034V138.208H73.9336Z" fill="#263238"/>
<path d="M79.6107 138.208V204.892C80.9224 204.778 82.1802 204.642 83.384 204.483V138.208H79.6107Z" fill="white"/>
</g>
<path d="M97.2974 138.208H44.7999V198.653C44.7999 202.29 56.5995 205.239 71.1591 205.239C85.7187 205.239 97.5184 202.29 97.5184 198.653L97.2974 138.208Z" stroke="#263238" stroke-width="1.14333" stroke-linecap="round" stroke-linejoin="round"/>
<path d="M71.1587 128.555C64.3775 128.555 57.4562 129.021 50.8367 130.68C47.1389 131.612 40.4008 133.578 41.9695 139.203C42.6702 141.714 45.4247 142.68 47.527 143.476C50.1273 144.357 52.8 144.981 55.5103 145.339C60.6844 146.156 65.9108 146.55 71.1425 146.516C77.9291 146.516 84.8558 146.05 91.4753 144.385C94.1705 143.714 97.5072 142.987 99.3938 140.675C99.8075 140.187 100.123 139.616 100.32 138.997C100.518 138.377 100.594 137.721 100.544 137.069C100.493 136.418 100.318 135.784 100.027 135.206C99.7368 134.628 99.3379 134.119 98.8548 133.708C96.6231 131.924 93.5236 131.174 90.85 130.544C86.5794 129.584 82.2421 128.991 77.8806 128.771C75.6489 128.627 73.4083 128.555 71.1587 128.555Z" fill="white"/>
<mask id="mask10_305_98" style="mask-type:luminance" maskUnits="userSpaceOnUse" x="41" y="128" width="60" height="19">
<path d="M71.1612 128.555C64.38 128.555 57.4587 129.021 50.8392 130.68C47.1414 131.612 40.4033 133.578 41.9719 139.203C42.6727 141.714 45.4272 142.68 47.5295 143.476C50.1298 144.357 52.8024 144.981 55.5127 145.339C60.6868 146.156 65.9132 146.549 71.145 146.515C77.9315 146.515 84.8583 146.049 91.4777 144.385C94.1729 143.714 97.5096 142.987 99.3963 140.674C99.81 140.187 100.125 139.616 100.323 138.996C100.521 138.377 100.597 137.721 100.546 137.069C100.496 136.418 100.32 135.783 100.03 135.206C99.7392 134.628 99.3404 134.118 98.8572 133.708C96.6256 131.924 93.5261 131.174 90.8524 130.543C86.5819 129.584 82.2445 128.991 77.883 128.771C75.6514 128.627 73.4108 128.555 71.1612 128.555Z" fill="white"/>
</mask>
<g mask="url(#mask10_305_98)">
<path opacity="0.42" d="M71.1612 128.555C64.38 128.555 57.4587 129.021 50.8392 130.68C47.1414 131.612 40.4033 133.578 41.9719 139.203C42.6727 141.714 45.4272 142.68 47.5295 143.476C50.1298 144.357 52.8024 144.981 55.5127 145.339C60.6868 146.156 65.9132 146.549 71.145 146.515C77.9315 146.515 84.8583 146.049 91.4777 144.385C94.1729 143.714 97.5096 142.987 99.3963 140.674C99.81 140.187 100.125 139.616 100.323 138.996C100.521 138.377 100.597 137.721 100.546 137.069C100.496 136.418 100.32 135.783 100.03 135.206C99.7392 134.628 99.3404 134.118 98.8572 133.708C96.6256 131.924 93.5261 131.174 90.8524 130.543C86.5819 129.584 82.2445 128.991 77.883 128.771C75.6514 128.627 73.4108 128.555 71.1612 128.555Z" fill="black"/>
</g>
<path d="M71.1587 128.555C64.3775 128.555 57.4562 129.021 50.8367 130.68C47.1389 131.612 40.4008 133.578 41.9695 139.203C42.6702 141.714 45.4247 142.68 47.527 143.476C50.1273 144.357 52.8 144.981 55.5103 145.339C60.6844 146.156 65.9108 146.55 71.1425 146.516C77.9291 146.516 84.8558 146.05 91.4753 144.385C94.1705 143.714 97.5072 142.987 99.3938 140.675C99.8075 140.187 100.123 139.616 100.32 138.997C100.518 138.377 100.594 137.721 100.544 137.069C100.493 136.418 100.318 135.784 100.027 135.206C99.7368 134.628 99.3379 134.119 98.8548 133.708C96.6231 131.924 93.5236 131.174 90.85 130.544C86.5794 129.584 82.2421 128.991 77.8806 128.771C75.6489 128.627 73.4083 128.555 71.1587 128.555Z" stroke="#263238" stroke-width="1.14333" stroke-linecap="round" stroke-linejoin="round"/>
<path d="M71.1611 141.998C85.704 141.998 97.4934 139.355 97.4934 136.094C97.4934 132.834 85.704 130.191 71.1611 130.191C56.6181 130.191 44.8288 132.834 44.8288 136.094C44.8288 139.355 56.6181 141.998 71.1611 141.998Z" fill="white"/>
<mask id="mask11_305_98" style="mask-type:luminance" maskUnits="userSpaceOnUse" x="44" y="130" width="54" height="12">
<path d="M71.1586 141.998C85.7015 141.998 97.4909 139.355 97.4909 136.094C97.4909 132.834 85.7015 130.191 71.1586 130.191C56.6157 130.191 44.8263 132.834 44.8263 136.094C44.8263 139.355 56.6157 141.998 71.1586 141.998Z" fill="white"/>
</mask>
<g mask="url(#mask11_305_98)">
<path opacity="0.65" d="M71.1586 141.998C85.7015 141.998 97.4909 139.355 97.4909 136.094C97.4909 132.834 85.7015 130.191 71.1586 130.191C56.6157 130.191 44.8263 132.834 44.8263 136.094C44.8263 139.355 56.6157 141.998 71.1586 141.998Z" fill="black"/>
</g>
<path d="M71.1611 141.998C85.704 141.998 97.4934 139.355 97.4934 136.094C97.4934 132.834 85.704 130.191 71.1611 130.191C56.6181 130.191 44.8288 132.834 44.8288 136.094C44.8288 139.355 56.6181 141.998 71.1611 141.998Z" stroke="#263238" stroke-width="1.14333" stroke-linecap="round" stroke-linejoin="round"/>
<path d="M45.44 154.652C45.44 154.652 41.5804 147.76 42.7448 145.561C43.9091 143.362 49.1325 145.407 50.6202 147.441C52.108 149.476 53.4448 155.118 52.7009 155.271C51.957 155.425 50.7711 155.584 50.4693 154.493C50.1674 153.402 48.6904 148.697 47.7741 148.066C46.8577 147.436 44.8039 146.191 44.8039 147.601C44.8039 149.01 47.0356 153.851 46.7337 154.646C46.4318 155.442 46.3348 155.589 45.44 154.652Z" fill="#263238"/>
<path d="M147.284 151.396H105.114V199.949C105.114 202.87 114.596 205.239 126.288 205.239C137.98 205.239 147.462 202.87 147.462 199.949L147.284 151.396Z" fill="white"/>
<mask id="mask12_305_98" style="mask-type:luminance" maskUnits="userSpaceOnUse" x="105" y="151" width="43" height="55">
<path d="M147.283 151.395H105.114V199.948C105.114 202.869 114.595 205.238 126.287 205.238C137.979 205.238 147.461 202.869 147.461 199.948L147.283 151.395Z" fill="white"/>
</mask>
<g mask="url(#mask12_305_98)">
<path opacity="0.42" d="M147.283 151.395H105.114V199.948C105.114 202.869 114.595 205.238 126.287 205.238C137.979 205.238 147.461 202.869 147.461 199.948L147.283 151.395Z" fill="black"/>
</g>
<path d="M147.284 151.396H105.114V199.949C105.114 202.87 114.596 205.239 126.288 205.239C137.98 205.239 147.462 202.87 147.462 199.949L147.284 151.396Z" stroke="#263238" stroke-width="1.14333" stroke-linecap="round" stroke-linejoin="round"/>
<path d="M115.144 151.396V204.443C118.359 204.921 121.6 205.183 124.847 205.228V151.396H115.144Z" fill="#263238"/>
<path d="M128.513 151.396V205.211C129.555 205.18 130.568 205.135 131.553 205.074V151.396H128.513Z" fill="#263238"/>
<path d="M133.074 151.396V204.961C134.125 204.87 135.144 204.762 136.114 204.637V151.396H133.074Z" fill="white"/>
<path d="M126.287 143.646C120.838 143.646 115.28 144.021 109.965 145.35C106.99 146.095 101.583 147.674 102.844 152.169C103.383 154.186 105.615 154.959 107.308 155.578C109.393 156.307 111.539 156.828 113.717 157.135C117.878 157.79 122.08 158.105 126.287 158.078C131.737 158.078 137.3 157.703 142.62 156.373C144.777 155.834 147.472 155.237 148.981 153.39C149.313 152.998 149.565 152.539 149.724 152.041C149.882 151.543 149.942 151.017 149.902 150.493C149.861 149.97 149.719 149.461 149.486 148.996C149.253 148.532 148.932 148.123 148.544 147.794C146.755 146.367 144.259 145.765 142.119 145.254C138.688 144.483 135.203 144.006 131.699 143.828C129.899 143.706 128.095 143.646 126.287 143.646Z" fill="white"/>
<mask id="mask13_305_98" style="mask-type:luminance" maskUnits="userSpaceOnUse" x="102" y="143" width="48" height="16">
<path d="M126.285 143.646C120.836 143.646 115.278 144.021 109.963 145.351C106.988 146.095 101.581 147.674 102.842 152.169C103.381 154.186 105.613 154.959 107.306 155.578C109.391 156.307 111.537 156.829 113.715 157.135C117.876 157.79 122.078 158.105 126.285 158.078C131.735 158.078 137.298 157.703 142.618 156.374C144.775 155.834 147.47 155.237 148.979 153.391C149.311 152.999 149.563 152.54 149.722 152.042C149.88 151.544 149.94 151.017 149.9 150.493C149.859 149.97 149.717 149.461 149.484 148.997C149.251 148.533 148.93 148.123 148.543 147.794C146.753 146.368 144.257 145.765 142.117 145.254C138.686 144.484 135.201 144.007 131.697 143.828C129.897 143.707 128.093 143.646 126.285 143.646Z" fill="white"/>
</mask>
<g mask="url(#mask13_305_98)">
<path opacity="0.42" d="M126.285 143.646C120.836 143.646 115.278 144.021 109.963 145.351C106.988 146.095 101.581 147.674 102.842 152.169C103.381 154.186 105.613 154.959 107.306 155.578C109.391 156.307 111.537 156.829 113.715 157.135C117.876 157.79 122.078 158.105 126.285 158.078C131.735 158.078 137.298 157.703 142.618 156.374C144.775 155.834 147.47 155.237 148.979 153.391C149.311 152.999 149.563 152.54 149.722 152.042C149.88 151.544 149.94 151.017 149.9 150.493C149.859 149.97 149.717 149.461 149.484 148.997C149.251 148.533 148.93 148.123 148.543 147.794C146.753 146.368 144.257 145.765 142.117 145.254C138.686 144.484 135.201 144.007 131.697 143.828C129.897 143.707 128.093 143.646 126.285 143.646Z" fill="black"/>
</g>
<path d="M126.287 143.646C120.838 143.646 115.28 144.021 109.965 145.35C106.99 146.095 101.583 147.674 102.844 152.169C103.383 154.186 105.615 154.959 107.308 155.578C109.393 156.307 111.539 156.828 113.717 157.135C117.878 157.79 122.08 158.105 126.287 158.078C131.737 158.078 137.3 157.703 142.62 156.373C144.777 155.834 147.472 155.237 148.981 153.39C149.313 152.998 149.565 152.539 149.724 152.041C149.882 151.543 149.942 151.017 149.902 150.493C149.861 149.97 149.719 149.461 149.486 148.996C149.253 148.532 148.932 148.123 148.544 147.794C146.755 146.367 144.259 145.765 142.119 145.254C138.688 144.483 135.203 144.006 131.699 143.828C129.899 143.706 128.095 143.646 126.287 143.646Z" stroke="#263238" stroke-width="1.14333" stroke-linecap="round" stroke-linejoin="round"/>
<path d="M126.286 154.447C137.968 154.447 147.438 152.323 147.438 149.703C147.438 147.083 137.968 144.959 126.286 144.959C114.604 144.959 105.134 147.083 105.134 149.703C105.134 152.323 114.604 154.447 126.286 154.447Z" fill="white"/>
<mask id="mask14_305_98" style="mask-type:luminance" maskUnits="userSpaceOnUse" x="105" y="144" width="43" height="11">
<path d="M126.285 154.448C137.967 154.448 147.437 152.324 147.437 149.703C147.437 147.083 137.967 144.959 126.285 144.959C114.603 144.959 105.133 147.083 105.133 149.703C105.133 152.324 114.603 154.448 126.285 154.448Z" fill="white"/>
</mask>
<g mask="url(#mask14_305_98)">
<path opacity="0.65" d="M126.285 154.448C137.967 154.448 147.437 152.324 147.437 149.703C147.437 147.083 137.967 144.959 126.285 144.959C114.603 144.959 105.133 147.083 105.133 149.703C105.133 152.324 114.603 154.448 126.285 154.448Z" fill="black"/>
</g>
<path d="M126.286 154.447C137.968 154.447 147.438 152.323 147.438 149.703C147.438 147.083 137.968 144.959 126.286 144.959C114.604 144.959 105.134 147.083 105.134 149.703C105.134 152.323 114.604 154.447 126.286 154.447Z" stroke="#263238" stroke-width="1.14333" stroke-linecap="round" stroke-linejoin="round"/>
<path d="M105.631 164.607C105.631 164.607 102.526 159.073 103.474 157.311C104.423 155.55 108.606 157.186 109.803 158.817C110.999 160.448 112.067 164.982 111.474 165.107C110.881 165.232 109.921 165.363 109.684 164.482C109.447 163.601 108.25 159.829 107.528 159.323C106.806 158.817 105.14 157.811 105.14 158.948C105.14 160.084 106.935 163.976 106.692 164.63C106.45 165.283 106.348 165.363 105.631 164.607Z" fill="#263238"/>
<path d="M57.4205 110.492C57.4205 114.014 60.4445 114.014 60.4445 117.532C60.4445 121.049 57.4205 121.049 57.4205 124.572C57.4205 128.094 60.4445 128.089 60.4445 131.612C60.4445 135.134 57.4205 135.134 57.4205 138.651" stroke="#263238" stroke-width="1.14333" stroke-linecap="round" stroke-linejoin="round"/>
<path d="M60.4437 103.457C60.4437 105.673 59.2416 106.491 58.3522 107.679" stroke="#263238" stroke-width="1.14333" stroke-linecap="round" stroke-linejoin="round"/>
<path d="M71.4892 110.225C71.4892 113.066 68.4651 113.066 68.4651 115.907C68.4651 118.748 71.4892 118.748 71.4892 121.589C71.4892 124.43 68.4651 124.43 68.4651 127.271C68.4651 130.112 71.4892 130.112 71.4892 132.953C71.4892 135.794 68.4651 135.794 68.4651 138.635" stroke="#263238" stroke-width="1.14333" stroke-linecap="round" stroke-linejoin="round"/>
<path d="M82.5324 103.457C82.5324 106.974 79.5083 106.974 79.5083 110.491C79.5083 114.008 82.5324 114.014 82.5324 117.531C82.5324 121.048 79.5083 121.048 79.5083 124.571C79.5083 128.094 82.5324 128.088 82.5324 131.611C82.5324 135.134 79.5083 135.134 79.5083 138.651" stroke="#263238" stroke-width="1.14333" stroke-linecap="round" stroke-linejoin="round"/>
<path d="M118.164 132.526C118.411 133.011 118.533 133.555 118.52 134.105C118.52 136.753 116.24 136.753 116.24 139.407C116.24 142.06 118.52 142.06 118.52 144.714C118.52 147.367 116.24 147.373 116.24 150.026" stroke="#263238" stroke-width="1.14333" stroke-linecap="round" stroke-linejoin="round"/>
<path d="M126.848 128.594C126.848 130.736 124.568 130.736 124.568 132.879C124.568 135.021 126.848 135.021 126.848 137.163C126.848 139.305 124.568 139.305 124.568 141.453C124.568 143.6 126.848 143.595 126.848 145.737C126.848 147.879 124.568 147.879 124.568 150.027" stroke="#263238" stroke-width="1.14333" stroke-linecap="round" stroke-linejoin="round"/>
<path d="M134.123 136.679C133.53 137.373 132.91 138.032 132.91 139.412C132.91 142.066 135.191 142.066 135.191 144.719C135.191 147.373 132.91 147.379 132.91 150.032" stroke="#263238" stroke-width="1.14333" stroke-linecap="round" stroke-linejoin="round"/>
</svg>
